<?xml version="1.0" encoding="UTF-8"?>
<svg version="1.1" viewBox="0 0 2000 2000" width="500" height="500" xmlns="http://www.w3.org/2000/svg">
<path transform="translate(789,867)" d="m0 0 18 3 10 4 6 4 9 9 11 16 9 19 8 26 4 17 10 48 7 28 2 4 2 1 3-9 6-23 4-22 8-39 8-26 11-26 6-10 9-9 11-9 8-4 18-2 4 2v30l3 1h29l1 1v183h-15l-18-1-1-1-1-179-8 1-9 5-6 9-7 15-6 18-5 19-7 36-7 33-6 17-7 13-5 6-11 7-2 1h-17l-9-3-8-9-9-16-7-19-5-22-8-40-5-21-5-16-7-17-6-9-6-5-12-4-1 181-2 1h-30l-3-1v-180l5-2h29l1-33z" fill="#1BC3EC"/>
<path transform="translate(1297,867)" d="m0 0h116l20 1 10 2 10 5 13 11 6 9 4 11 2 11 1 57v45l-1 23-1 7-1 1h-32l-1 33h-138l-15-5-12-8-9-10-5-12-3-13-1-24v-102l4-8 23-1 8-1 1-31zm-1 34-1 130 5 10 4 5 3 2 9 1h92l35-1v-125l-3-12-6-7-4-1-32-1h-68z" fill="#1BC4ED"/>
<path transform="translate(575,867)" d="m0 0h140l2 2 1 23-1 9-1 1-25 1h-85v3l-4-1v-2h-24l-9 2-7 4-5 10v109l3 10 4 6 5 3 9 1 125 1 1 5v29l-6 1h-91l-40-1-12-3-10-5-8-7-6-8-6-12-4-15-1-33 1-64 1-23 3-10 8-14 5-6 10-8 11-5 7-2z" fill="#1BC3EC"/>
<path transform="translate(1104,867)" d="m0 0h87l16 2 9 4 10 7 9 9 6 10 4 13 1 10v160l-1 1-32 1-1-1-1-30-1-134-4-12-5-2-11-2h-117l-9-1-2-19v-15z" fill="#1BC3EC"/>
<path transform="translate(1058,894)" d="m0 0h2l2 9 2 66 1 9 9 1 116 1 1 7v26l-3 2h-124v24l-1 43-7 2h-25l-2-2-1-34v-104l1-7v-23l-2-5 1-7 4-1 10-1h14l1-5zm-25 68-1 3 3 1v-4z" fill="#1BC3EC"/>
<path transform="translate(609,959)" d="m0 0h129l1 1v89l-1 1h-33l-1-1v-56h-94l-2-1v-32z" fill="#1BC4ED"/>
<path transform="translate(1349,938)" d="m0 0 5 1 1 16v54l-4 11-5 4-6 7-9 7h-2l2-4 7-7 6-8 2-4 1-49 1-16v-11z" fill="#FEFEFE"/>
<path transform="translate(483,1137)" d="m0 0h6l2 2 3 9 3 7 1 3v-21l5 1v29l-6 1-3-5-3-10v-4l-2 1-1 17-5-1z" fill="#2988A4"/>
<path transform="translate(884,1137)" d="m0 0h5l2 2 3 9 4 10-1-19 1-2 5 1v28l-1 1h-6l-4-10-3-9-1 19-4 1-1-1-1-27z" fill="#2988A4"/>
<path transform="translate(1529,1137)" d="m0 0h5l4 9 3 12 1-2 1-18 4-1 1 1v28l-1 1h-7l-1-7-3-3-2-9-1 10v9h-5v-28z" fill="#2988A4"/>
<path transform="translate(1437,1137)" d="m0 0h13l5 4 1 2v7l-3 5v5l3 3v4h-5l-3-5-1-5-6-1 1 11h-5l-1-1v-27zm6 4-2 2v8l2 1h6l1-1v-8l-3-2z" fill="#2988A4"/>
<path transform="translate(1682,1137)" d="m0 0h13l4 2 2 4-1 9-2 3 1 5 2 4v3h-6l-4-10-5-1 1 11h-5l-1-1v-28zm5 4-1 1v9l2 1h6l1-1v-8l-2-2z" fill="#2988A4"/>
<path transform="translate(1468,1137)" d="m0 0h10l5 3 3 4v16l-3 5-2 2-4 1h-7l-4-2v-28zm4 5-1 1v19l2 2 5-1 2-2 1-4v-10l-3-5z" fill="#2988A4"/>
<path transform="translate(1345,1137)" d="m0 0h11l6 3 1 2v8l-2 4h-2l1 6 4 6-1 1h-5l-2-2-3-7-5-2 1 11-3 1-3-2v-27zm4 4-1 1v9l1 1h7l2-4-1-5-2-2z" fill="#2988A4"/>
<path transform="translate(545,1137)" d="m0 0h12l6 4 2 3v16l-4 6-1 1h-15zm6 5-1 1v19l1 1h6l3-4v-12l-2-4z" fill="#2988A4"/>
<path transform="translate(459,1137)" d="m0 0h8l5 4 1 2v18l-4 6-2 1h-8l-4-2-3-6v-14l3-7zm2 4-3 3-1 4v12l4 4 5-1 2-3v-14l-2-4z" fill="#2888A4"/>
<path transform="translate(1411,1137)" d="m0 0h8l5 5 2 7-1 11-4 6-4 2-8-1-4-4-1-5v-12l3-7zm0 5-2 7v10l2 4 5 1 4-4v-14l-2-4z" fill="#2988A4"/>
<path transform="translate(1652,1137)" d="m0 0h4l1 26 7-1 1-25 5 1 1 2v18l-2 7-5 3h-7l-5-3-1-3v-24z" fill="#2988A4"/>
<path transform="translate(1221,1137)" d="m0 0h20v5h-14v8h12v4l-13 1v8l15 1v3l-16 1-4-2z" fill="#2988A4"/>
<path transform="translate(945,1137)" d="m0 0h18l1 4-3 1h-11l1 7h11l1 4-1 1-12 2v7l14 1v3l-18 1-2-2v-27z" fill="#2988A4"/>
<path transform="translate(307,1137)" d="m0 0 7 1 4 4 1 5-4-2-2-2h-8l-1 3v13l1 3 6 1 3-2 1-4-5-1-2-4 4-1h6l1 1v10l-4 5-3 1h-7l-5-3-2-5v-15l2-5z" fill="#2988A4"/>
<path transform="translate(365,1137)" d="m0 0h10l4 5v5l-8-5-5 1v5l9 3 5 5v6l-4 5-2 1h-8l-5-3-1-6 5 2 1 1h7l1-4-13-7-1-1v-7z" fill="#2988A4"/>
<path transform="translate(1191,1137)" d="m0 0h18l1 4-1 1h-13v8h12v4l-13 1 1 8h13l1 4-15 1-5-2v-16z" fill="#2988A4"/>
<path transform="translate(1041,1137)" d="m0 0h9l5 4v5l-6-2-2-2-5 1v4l13 7 1 2v6l-3 5-2 1h-9l-5-3-2-3v-3l6 2 4 2 5-1 1-5-9-3-6-4v-7z" fill="#2988A4"/>
<path transform="translate(792,1137)" d="m0 0h18l1 4-2 2-10-1h-2v8h12l-1 5h-12l1 8h13v4l-15 1-4-2v-21z" fill="#2988A4"/>
<path transform="translate(331,1137)" d="m0 0h18l1 5h-13l-1 8h12v4l-13 1 1 8h13v4l-14 1-5-2v-27z" fill="#2888A4"/>
<path transform="translate(1334,916)" d="m0 0h1l1 14 1 13 1 3 5-1 1 3-1 5-8 1v55l-2 3-1-4v-53l-1-7z" fill="#FCFDFD"/>
<path transform="translate(1014,1136)" d="m0 0 5 1 5 15 3 15h-5l-2-6-9-1-1 7h-6l4-17 5-13zm1 9-2 4v6l1 1h5l-1-8z" fill="#2988A4"/>
<path transform="translate(677,1136)" d="m0 0 5 2 4 15 3 14-4 1-2-4v-3l-10-1-1 7h-5l2-13 4-15zm0 6-2 8v6h6l-1-8-2-6z" fill="#2988A4"/>
<path transform="translate(1073,1137)" d="m0 0h9l4 6v3l-4-1-6-3h-3v6l9 3 5 5v7l-6 5h-8l-5-3-2-5 5 1 8 2 2-1v-4l-13-7-1-7 3-5z" fill="#2988A4"/>
<path transform="translate(1134,1137)" d="m0 0h8l4 3 1 7-8-5h-5v6l9 3 5 5v6l-4 5-2 1h-8l-4-2-2-3 1-4 8 4 5-1-1-5-12-6-1-1 1-9z" fill="#2988A4"/>
<path transform="translate(860,1137)" d="m0 0 5 1 2 2 6 25-1 3-4-1-1-6h-10l-1 6h-5l1-9 5-18zm2 6-3 5-1 7 1 1h6l-1-9z" fill="#2988A4"/>
<path transform="translate(1321,1136)" d="m0 0 4 1 3 5 6 22v3l-4 1-2-2-1-5h-9l-2 6h-4l1-8 5-19zm1 7-2 4-1 8 1 1h6l-1-8-2-5z" fill="#2988A4"/>
<path transform="translate(1621,1137)" d="m0 0h18v5h-12v7l11 1v4l-11 1-1 8h13l1 4-17 1-3-2z" fill="#2988A4"/>
<path transform="translate(1283,1137)" d="m0 0h12l5 2 3 4-1 9-3 3-5 1h-7v11h-5v-29zm5 4-1 1v9l1 1h7l2-2v-6l-4-3z" fill="#2988A4"/>
<path transform="translate(576,1137)" d="m0 0h18l1 4-1 1h-13v8h12v4l-13 1 1 8 13 1v3l-16 1-2-1-1-10z" fill="#2988A4"/>
<path transform="translate(1566,1137)" d="m0 0h5l3 4 6 25v1h-5l-2-6-9-1-1 7h-5l1-8 4-15zm3 7-3 6v6h6l-1-10z" fill="#2988A4"/>
<path transform="translate(422,1137)" d="m0 0h19l-2 5-3 2-1 19 6 2-1 3h-13l-5-1 1-3 5-2v-17l-2-3-3-1z" fill="#2988A4"/>
<path transform="translate(1098,1137)" d="m0 0h19l-1 5-4 2-1 13 2 6 5 3-3 2-17-1 1-3 5-2v-15l-2-5-4-3z" fill="#2988A4"/>
<path transform="translate(1021,825)" d="m0 0 5 2-2 6 2 9 1 2v12l-1 3 1 20-4 3-3-9v-47z" fill="#FEFEFE"/>
<path transform="translate(919,1137)" d="m0 0h7l5 2 1 2v6l-4-2-3-2h-5l-1 2v15l3 3 5-2 3-3h2l-1 7-5 3-9-1-3-3-2-12 1-9 4-5z" fill="#2888A4"/>
<path transform="translate(698,1137)" d="m0 0h18l1 2-4 4h-2v17l1 3 5 3-3 2h-10l-6-1 2-3 4-2v-14l-1-6-4-2z" fill="#2988A4"/>
<path transform="translate(1497,1137)" d="m0 0h18v4l-4 2-1 5v15l6 2v2h-19v-2l6-2v-19l-1-2-5-2z" fill="#2988A4"/>
<path transform="translate(389,1137)" d="m0 0h22v5l-6 1-2 24h-5l-1-3v-21l-7-1z" fill="#2988A4"/>
<path transform="translate(1406,928)" d="m0 0h1v25l-3 6-11 12-7 7-1 30-1 4-3-1 1-22 2-9h-2l1-6 8-9 8-6 5-8 1-4z" fill="#FEFEFE"/>
<path transform="translate(760,1137)" d="m0 0h20l1 4-1 1h-7l-1 25h-5v-24l-8-1v-4z" fill="#2988A4"/>
<path transform="translate(1159,1137)" d="m0 0h20l1 4-1 1-7 1-1 24h-5l-1-24-7-1-1-4z" fill="#2988A4"/>
<path transform="translate(1588,1137)" d="m0 0h21l1 4-1 1-7 1-1 24-4 1-1-1-1-24-7-2z" fill="#2988A4"/>
<path transform="translate(652,1137)" d="m0 0 5 1v29l-5-1-1-16-5 5h-3l1-7 4-4 2-6z" fill="#2988A4"/>
<path transform="translate(1035,833)" d="m0 0 4 1v24l-2 2-7-1-1-1v-15h2l1-7z" fill="#FEFEFE"/>
<path transform="translate(1442,1058)" d="m0 0h1v25h-131v-1l118-1 8-1 1-1 1-16z" fill="#2988A4"/>
<path transform="translate(729,1137)" d="m0 0h6l4 9 1 5v8l-4-3-3-8 1 18-5 1z" fill="#2988A4"/>
<path transform="translate(822,1137)" d="m0 0h5l4 9 1 11h-3l-2-5v-5h-2l1 20h-5v-29z" fill="#2988A4"/>
<path transform="translate(1030,860)" d="m0 0 6 1 1 2v17l-2 4-6-2v-19z" fill="#FEFEFE"/>
<path transform="translate(637,1137)" d="m0 0h6v11l-2 7v12h-5v-28z" fill="#2988A4"/>
<path transform="translate(837,1137)" d="m0 0 4 1v11l-1 18h-7v-10l2-7 1-11z" fill="#2988A4"/>
<path transform="translate(745,1137)" d="m0 0h3l1 7-1 23h-6l-2-5 1-4 2-9 1-10z" fill="#2988A4"/>
<path transform="translate(1361,934)" d="m0 0h2v44h-4v-27l1-14z" fill="#EEF9FB"/>
<path transform="translate(1348,1012)" d="m0 0h3l1 6-4 5-5 5-12 10h-2l2-4 7-7 6-8z" fill="#2CC8EE"/>
<path transform="translate(1369,951)" d="m0 0h2l1 4v29l1 29-2-2-1-6-1-43z" fill="#FEFEFE"/>
<path transform="translate(1061,1064)" d="m0 0h1v19l-8 1-10-1 2-2 7-2 4-2 1-2 1-9z" fill="#2889A5"/>
<path transform="translate(501,1073)" d="m0 0h27v1l-9 1h-13l-6 1z" fill="#25C1E7"/>
<path transform="translate(1369,951)" d="m0 0h2l1 4v9l-2 1-1-3z" fill="#F1FAFD"/>
<path transform="translate(1326,1006)" d="m0 0h2l-2 16h-1l-1-10z" fill="#CBF1FA"/>
<path transform="translate(1200,1128)" d="m0 0h5l1 2-4 2h-4z" fill="#2988A4"/>
<path transform="translate(1033,885)" d="m0 0 1 3-1 9-2 2v-11z" fill="#C7F0F9"/>
<path transform="translate(1053,1108)" d="m0 0h1v13h-1z" fill="#239FC0"/>
<path transform="translate(1053,1123)" d="m0 0 2 4-4-1z" fill="#2988A4"/>
<path transform="translate(546,1081)" d="m0 0h2l-1 4h-2z" fill="#20ACCF"/>
<path transform="translate(1327,1038)" d="m0 0 2 1-4 4-2-1z" fill="#1BC4ED"/>
<path transform="translate(1054,1085)" d="m0 0h1v5l-2-4z" fill="#1BC4ED"/>
<path transform="translate(1320,1044)" d="m0 0 2 1-4 2z" fill="#1BC4ED"/>
<path transform="translate(1302,1028)" d="m0 0 2 1h-3z" fill="#1BC4ED"/>
<path transform="translate(1338,941)" d="m0 0 4 1z" fill="#FEFEFE"/>
<path transform="translate(1308,1037)" d="m0 0 2 1z" fill="#1BC4ED"/>
<path transform="translate(1310,1036)" d="m0 0 2 1z" fill="#1BC4ED"/>
<path transform="translate(1322,1043)" d="m0 0" fill="#1BC4ED"/>
<path transform="translate(1308,996)" d="m0 0" fill="#1BC4ED"/>
<path transform="translate(1309,995)" d="m0 0" fill="#1BC4ED"/>
<path transform="translate(1310,994)" d="m0 0" fill="#1BC4ED"/>
<path transform="translate(1311,993)" d="m0 0" fill="#1BC4ED"/>
</svg>
