<?xml version="1.0" encoding="UTF-8"?>
<svg version="1.1" viewBox="0 0 2000 2000" width="500" height="500" xmlns="http://www.w3.org/2000/svg">
<path transform="translate(438,850)" d="m0 0h176l1 5v51l-1 1-76 1h-80l-25 1-12 6-5 5-4 6-2 8v128l4 9 5 1 8-4 5-6 1-6-6-8-6-7-1-2v-18h3l5 6 8 7 19 19 8 7-1 7-6 11-5 5-4-1 11-15 1-5-11-10-21-21-4-3 1 11 12 12 2 6-3 9-8 7 1 10 3 1h13l15-1 4-1 7-10 5 2h3l6-7 1-4-27-27-8-7-22-22-7-5-1-7h-2l-4-5 1-6 2-3h6l12 5 7 4 17 17 5 7 2 1 1-2 1-20-1-22-19-19v-2l-9-3-3-3 1-9 2-2 7 1 4 5v5l-2 4 8 6 7 7 4 5v2l29-1-6-7-11-11-7-2-4-4v-6l3-3h7l4 4-1 8 14 15 6 6h18v-2l-1-3-4-2-7-8-5-4-5-5-3-4 2-1 6 1 13 1 1-5 2-1h7l3 2 1 7 1 5 8 6 12 12v2l5-1h14l-4-6-9-9-2-3-10-3-4-4 1-5 4-1 1-3 6 2 1 4 18 1h10l12 1v1l-39 1 3 6 9 8 7 8 2 1v2h58l-2-20-2-5v-8l7-1 5 3 5 2h5l2 4v14l-2 52-1 5h-1v-37l-1-35-6 2-6 5-1 19h10v55l1 14 4-2 11-11 3-1 1-2 1-111 25-1h24l8 1 1 161 1 71-5 1-2 4h-9l-24 24-2 3h24l8-6 5 2 3 3v7l-4 4-1 8-1 4-31 1-11 2-8 7-9 9-3 7-1 8v53l-3 5-9 10-17 16-13 12-5 5-6 5-9-1-12-10-7-8-7-4-8-1-8 4-3 2-4-1-4-5-1-3 4-6 2-2 4 1 8 5 10 2-2-15-4-7 2-5 3-3 8 2 2 2v7l-5 5v10l2 6 10 8v-40l-5-6v-5l8-7 6 4 2 4-1 5-3 1-1 4v45l5 6 7 2 5-4 2-3v-55l4-6 13-13 3-6v-6l3-3 1-5v-19l1-10-5 3-46 46-8 7-13 12-7 8-14 14-7 6-5 6-13 13h-2l-2 4-3 1v2h17l37 1 8 7 6 4 4 2 1 2v7l-5 4-9-3-2-3-72 1-2 4h-8l-5-5 1-5 6-5 5 2 5 3h66l6-1-1-4-4-6-60-1-2-1 2-4 8-7 70-70 8-7 39-39v-3l2-7 3-3h5 3l2-6-1-17-4-2-1-4 2-5 3-1h7l3 3v8l-4 2v14l10-9 2-4-2-14-4-7v-7l5-3 6 1 1 2v-14l-11 6-11 9-13 13-4 5-8 5-13 2v10l7 2 1 1v18l-6 2h-2l1 6-14 1-6 2-11 9-4 5 1 10-4 8-14 15-53 53-4 5-3 1-10-9v-3l-6 1-7-4-7-1h-39l-1 3-7 1-5-2v-8l-7-8-3-3v-2l-4-2-4-5-1-2-1-16 1-2 31-1 7-3 42-42 7-14 3-1 8 3 22 1-2 4-10 10h-2l-2 4-33 33h-2l-2 12-4 4-6-1-4-4v-6l4-4 10-2 6-7h2v-2h2v-2l31-31v-3l-7-2-5 7-2 1h-10l-6 8-3 1-2 4-36 36-9 1-22 1-1 4v8l9 10 8 8h5l7 5 41 1 3-1 3-4 7-1 5 5-1 9 7 5 3 3 7-7 7-8 51-51 6-9 1-5-1-1v-7l7-8 3-3h2l2-4 3-4v-2l-4-1h-15l-7 3-1 1v21l1 2v7l-6 5h-5l-7 8-12 12-8 7-22 22-1 2-4-2-10-10-7-3h-49l-3 4-7-1-3-3-1-7 4-4 4-1 8 5 49 1 5 3 11 11 4-1 32-32 7-8 6-6 1-9 5-4h2v-18l3-5 7-4h24v-14l-30 1-8 7-25 25-6 5-1 2-1 23-4 15-3 3-8-1-2-6 1-7 1-1 11-1v-18l-5 3-17 17-3 11-2 2h-9l-2-3-1-7 6-4 7-1 3-1 2-4 63-63 3-1h30v-24l1-1h11l8 1 1 8 12-2 5-3-1-4-11-12-6-2-16-1v8l-2 1h-24l-4 4-2-3-28-1-90-1-15-2-16-4-11-6-4-1-1 3-3-6-16-16-9-13-6-13-4-16-1-24v-104l1-18 5-17 4-9 8-12 11-12 8-7 16-9 11-4zm66 91-2 1 2 5 22 22 21-1-2-4-13-13-19-9zm51 31v3h3l-1-3zm-126 15-6 8-1 2 13 13 5 4h2l2 4 40 40h2l1 9-10 15v2l2 1h62l1-5 7-1 2 5h-6v1l42 1v-15l-1-1h-62l-3 5h-6l-7-14-11-12-17-17-6-5-5-1-1-6-17-16-12-12-8-5zm212 33m23 4-10 9-5 6-4 3v20h8l4 1 5-5-4 5-2 4-2 7-9 1-1 1v7l5 1h16l1-9v-49zm-187 2 5 6 8 7 12 11 11 12h6l6 5 4 1h57v-14h-58l-8-6-14-15-3-4h2l1 3 6 5h2l2 4 9 8 3 3 5 1 53-1 1-22-2-4zm-59 50-1 2 2 5h6l-1-2h-2l-2-5zm172 9-3 1v11h44l21-1 1 6h7l3 1-2 1-10 1h-18l-7 1-2 6h-14l-17-1h-6v6h33l5 1h27l3-6 7 1 3 1v-28l-48-1zm36 34-39 1-1 5v8l23 1 8 6 8 9 4-1 15-16 8-7v-4l-1-1-9-1zm89 23v1h5v-1zm-29 1-8 1h-13l-4 6v11l2 2 12-12 7-5 3-1-45 45v8l-5 5v31l4 4 2 9-5 2-9 4-4 4v2l-4 2-7 8-1 4v40l1 7 5-3 7-7 1-35 16-15 7-8 1-6 1-27 7-9 15-15 3-1 38-1v-7l-3-7h-37l7-8 5-5v-2l4-2 4-5 11-9 4-3-3-1zm-97 11-2 1v40l1 5h11l1-1v-44zm72 9m-58 16v10l2 4 3-1v-11l-2-2zm44 79-12 12-6 5-1 2v25h4l15-15 1-2 1-26z" fill="#5975DD"/>
<path transform="translate(438,850)" d="m0 0h176l1 5v51l-1 1-76 1h-80l-25 1-12 6-5 5-4 6-2 8v128l4 9 5 1 8-4 5-6 1-6-6-8-6-7-1-2v-18h3l5 6 8 7 19 19 8 7-1 7-6 11-5 5-4-1 11-15 1-5-11-10-21-21-4-3 1 11 12 12 2 6-3 9-8 7 1 10 3 1h13l32-1v2h62l2 4-1 12v29l-1 6h9l4-2v-2l-2-1v-3l-5-1v-8l-1-4 2-1 2-4 13 1 6 1 16 1v2l3 1-10 1h-16l-5 2v3h-2l2 3h12l18-1 2 1 1 18-2 1h-24l-4 4-2-3-28-1-90-1-15-2-16-4-11-6-4-1-1 3-3-6-16-16-9-13-6-13-4-16-1-24v-104l1-18 5-17 4-9 8-12 11-12 8-7 16-9 11-4zm-20 226-1 2 2 5h6l-1-2h-2l-2-5z" fill="#355FEE"/>
<path transform="translate(726,852)" d="m0 0h9l13 2 14 6 9 7 11 11 11 16 7 15 8 21 8 29 7 33 5 30 3 11 7 31 3 10 2 1 5-18 7-30 4-23 9-43 9-31 8-21 8-16 8-13 9-10 9-8 16-8 11-2h12l1 1v53l-2 3-7 3-4 4-8 14-9 25-9 38-10 55-6 26-8 24-8 16-7 10-5 5-8 7-9 4-11 3h-13l-13-4-10-6-9-9-8-13-7-15-7-21-6-25-13-68-6-26-7-21-8-16-6-8-9-3-1-3v-46z" fill="#355EEE"/>
<path transform="translate(1124,850)" d="m0 0h114l21 2 15 3 11 5 12 7 13 12 8 10 8 14 5 16 2 15v208l-6 1h-50l-1-1-1-59v-118l-1-34-6-12-7-6-9-4-6-1h-141l-7-2v-53l1-2z" fill="#355FEE"/>
<path transform="translate(1414,850)" d="m0 0h133l20 1 18 3 15 5 12 8 10 9 7 7 10 15 7 19 1 4 1 14v148l-4 1h-31l-11 1h-11l-1-3-1-23v-110l-1-19-3-7-1-1-1 112-6 10-9 9-9 6-6 1h-29l-9-3-8-7-2-4-1-6v-75l4-1 1 59 1 20 2 7 6 3 13 1h11l3-2h5l-2 2 9-1 11-8 8-7 2-3 1-5v-33l1-76v-4l-9-6-12-4-2 4-3 1v-4h-20v2l-3-1h-62l-3 4-1 4-1 13v39h-5l-1-16-1-26-1 54v54l-6 5-7 8-10 10-10 8-3 3-2-1 16-16 7-8 5-4 4-7 1-4v-121h-36l-1-1zm42 57-2 2 1 1 1 7 2 1v-2h2l6-8zm10 3m-9 10m162 159 2 3v-3z" fill="#355FEE"/>
<path transform="translate(1028,786)" d="m0 0h6l3 2-3 23v5l2 2v3l14 1 1 1-1 60-1 11-3 5h2v4h-4l-5 4 3 1 55 1 1 1v88l6-1h131l9 1 1 1v55l-2 1-145 1v45l-1 40-1 1h-54l-1-1-1-36v-135l1-5-1-2v-51h-6l-5-9-1-81 1-5v-12l-1-3-1-14z" fill="#355FEE"/>
<path transform="translate(1356,909)" d="m0 0h57v118l1 4v20l2 17 4 6 9 7 7 4 5-1 14-15 9-10 7-8 2-4v-101l3-3 4 1 1 11 1 2-1 2-1 91-5 5-8 9h-2l-2 4h-2v2l-8 7-8 8h145v25l-1 27-1 5-5 1h-144l-15-2-15-5-12-6-11-8-8-7-9-14-7-12-5-16-2-14v-148z" fill="#345EEE"/>
<path transform="translate(961,909)" d="m0 0h56l1 1v231l-2 1-34 1h-21l-1-35v-198z" fill="#355FEE"/>
<path transform="translate(1476,943)" d="m0 0 4 1 1 11 1 2-1 2-1 91-5 5-8 9h-2l-2 4h-2v2l-8 7-8 8h145v25l-2 2v-2l-10 4 4 6 2 12v5l-2 2-9 2h-31l-67-1-10 1-13-2h-8l-3-1-3 1h-10l-9-5-8-2-1-1h-5l-10-7-7-6v-2l-2-1 1-2-2-1 1-1h10l-4-3 17-2h-29l-5-1-3-5 1-3 36-2 17-2 3-1 4-8 6 1 6-5 7-8 14-15 6-8 1-2v-101z" fill="#365FEE"/>
<path transform="translate(546,933)" d="m0 0 6 2 1 4 18 1h10l12 1v1l-39 1 3 6 9 8 7 8 2 1v2h58l-2-20-2-5v-8l7-1 5 3 5 2h5l2 4v14l-2 52-1 5h-1v-37l-1-35-6 2-6 5-1 19h10v51l-2 21h-4v2l-5 3-3 5-11 1h-27l-4-2h-3v-21l-1-1-51-1-8-1-6-8-8-7-20-20v-2l-4-2-8-8-4-1 1-3 7-2 1 2h2v-2l9-1 1-1-5-1 4-3-17-17-7-2-4-4v-6l3-3h7l4 4-1 8 14 15 6 6h18v-2l-1-3-4-2-7-8-5-4-5-5-3-4 2-1 6 1 13 1 1-5 2-1h7l3 2 1 7 1 5 8 6 12 12v2l5-1h14l-4-6-9-9-2-3-10-3-4-4 1-5 4-1zm-42 8-2 1 2 5 22 22 21-1-2-4-13-13-19-9zm51 31v3h3l-1-3z" fill="#355FEE"/>
<path transform="translate(542,1079)" d="m0 0h7l2 5 35 1 1 1v11l11-1h54l2 5 9 1 1 2-13 2h-25l-1 6-1 1h-14l-17-1-6-1v6l33-1 5 1 27 1 2-6 5-1 5 2-2 11-10 7-10 8-13 13-4 5-8 5-13 2v10l7 2 1 1v18l-6 2h-2l1 6-14 1-6 2-11 9-4 5 1 10-4 8-14 15-53 53-4 5-3 1-10-9v-3l-6 1-7-4-7-1h-39l-1 3-7 1-5-2v-8l-7-8-3-3v-2l-4-2-4-5-1-2-1-16 1-2 31-1 7-3 42-42 7-14 3-1 8 3 22 1-2 4-10 10h-2l-2 4-33 33h-2l-2 12-4 4-6-1-4-4v-6l4-4 10-2 6-7h2v-2h2v-2l31-31v-3l-7-2-5 7-2 1h-10l-6 8-3 1-2 4-36 36-9 1-22 1-1 4v8l9 10 8 8h5l7 5 41 1 3-1 3-4 7-1 5 5-1 9 7 5 3 3 7-7 7-8 51-51 6-9 1-5-1-1v-7l7-8 3-3h2l2-4 3-4v-2l-4-1h-15l-7 3-1 1v21l1 2v7l-6 5h-5l-7 8-12 12-8 7-22 22-1 2-4-2-10-10-7-3h-49l-3 4-7-1-3-3-1-7 4-4 4-1 8 5 49 1 5 3 11 11 4-1 32-32 7-8 6-6 1-9 5-4h2v-18l3-5 7-4h24v-14l-30 1-8 7-25 25-6 5-1 2-1 23-4 15-3 3-8-1-2-6 1-7 1-1 11-1v-18l-5 3-17 17-3 11-2 2h-9l-2-3-1-7 6-4 7-1 3-1 2-4 63-63 3-1h30v-24l1-1h11l8 1 1 8 12-2 5-3-1-4-11-12-6-2-16-1v6h-1v-8h23l8 6 8 9 4-1 14-15 9-8-1-3-9-1h-16l-39 1v4l-31 1-4-2v-2h2l-1-3 2-2 10-1h11l6-1v-2l-8 1-11-1-9-2h-7l-3 5 1 8v3l4 1v3l3 1-1 4-9 1-4-1-1-4 1-6v-30l1-9-1-2h3v-5zm47 75-2 1v40l1 5h11l1-1v-44zm14 25v10l2 4 3-1v-11l-2-2z" fill="#A39595"/>
<path transform="translate(462,636)" d="m0 0 5 3 5 12 15 15 4 5 5 4 9 4 14 14 1 2 1 95 4 4 21 6 12 3h6l-18-18v-2l-4-2-3-2-9-2-4-4v-6l3-4h9l2 3 2 8 5 5 2 1v-16l-8-10-12-2-2-2v-10l5-3 7 2 2 4 2 9 7 3v-15l-9-9-1-9v-63l-3-5-1-1v-6l4-5 6 1 6 5 7 2 10 2 2 10v22l4 7 9 9 4 5v106l12 4-1-113-3-7-7-6v-2l-4-2-3-3v-12l-1-4-4-2-1-4 7-8 5 1 4 4 1 4-5 10v7l4 6 11 9 1 2v124l-3 1-17-6-1-2-1-104-3-6-14-13v-32l-11-3-7 1-1 5 1 70 7 7v13l-1 4 6-3 4-5 2-8v-16l-5-6v-7l5-4 7 1 4 4-1 7-3 2-1 7-1 18-4 7-6 7-4 3-1 3v24l12 11 3 7v2h-7l-40-9-3 5-7-2-2-3-9-1-76 1-6 5-6-2-6-14-7-7-2-13v-50l-5-10-15-15-10-2h-74l-2 4h-10l-2-3 1-9 2-2h7l5 5 83 1 5 2 7 8 8 8 4 6 1 3 1 60 4 9 6 5 11 3 1 3h76l8-2 4-4v-48l-1-43-7-8v-2l-4-2-5-2h-95l-4-2-4-5-4-2h-62l-2 2h-9l-3-4 1-7 3-3 9 1 5 5h53l-1-4-8-1-5-4v-8l4-3h7l3 3 2 12 4 2 6 7 4 4 37 1 9-1-7-8-8-8-6-4-8-4-1-4 2-5 3-2h7l3 3 1 10 8 7 7 8 6 5 1 2 16 1h13l3-1-9-10-13-13-10-3-3-5 4-6z" fill="#A39595"/>
<path transform="translate(257,697)" d="m0 0 5 1 6 3 89 1 12 1 14 6 3 5 2 8v83l4 5v6l-5 3-7 2-16 16-7 8-10 9-6 2h-115l-33 1-5 3-7 3-16 14-4 5-6-1h-11l-4 3-5-1-5-5 2-6 3-3h2l3-10 7-18 2-5 1-1 78-1 37-37 7-8 19-19 3-2 19-1 3-6v-12l3-6 21-21 12-11 2-3h-87l-3 3-10 1h-4l3 6 9 9 2 5v11l-3 7-8 8-7 6-5 5-6 4-15-1-2 4-24 24-8 6-2 1h-9l-11-1 2-5 13-16 9-10 11-11 4-3-2-4v-5l4-5 5-1 12 7h5v-2h2v-2l8-7 3-5-10-4-3-4 1-6 5-5 5 1 4 5 2 12h2l-1 5-12 12-7 4-8-1-12 8-17 16-10 11-6 9-1 3 10-1 8-5 18-18 7-8 4-3 17-1 10-9 7-7 4-6 1-3v-8l-5-10-10-9 1-3 8-6 3-7zm106 9-7 6-26 26-8 7-3 6 1 5-2 10-4 4-4 1h-12l-6 4-6 7-3 2v2l-4 2v2l-4 2-7 8-29 29-4 5-6 4-58 1-19 1-4 10-5 13v10l5 3h11l6-4 10-9 4-7 2-8 7-2 3 2 2 4h150l12-11 5-5 1-3 4-2 11-11 2-5 1-7 4-3 1-3v-39l-2-2-9 8-2 3-1 13-2 5-9 10-6 6v12l5 8 1 6-4 2h-6l-4-3v-7l4-7v-5l-4 2-8 7-6 7-6 2-5 2-3 2-6-1-3-3-1-5 5-5 3-1 7 5 3 4 4-2 16-16v-2l3-1 7-8 11-11 2-4 1-13 4-6 9-9 2-6v-12l-2-2-7 7-8 7-11 11-2 4 2 9 4 5-1 6h-2v2l-9-1-17 17-1 2-17 1-7 4-9 10-1 2v9l-2 2h-7l-4-4v-5l2-4 11-1 7-10 5-4 7-2 12-2 4-2 13-13 2-3 2-7 2-4 2-10 7-8 11-10 7-8 5-4 2-3v-7l-2-1-5 1-4-1-16 15-16 16-3 6v11l-7 9-11 11-7 1-10 1-10 8-23 23v8l-1 4-9-2-3-2v-5l5-5 7-1v-2l4-2 7-8 5-4 7-8 9-8 2-1h13l7-4 8-8 3-5-1-12 4-6 13-13 8-7 12-12 2-8-5-5z" fill="#B5A7A7"/>
<path transform="translate(691,909)" d="m0 0h24l8 1 1 161v7l-2 3-1-1-1-11-2-5 2-3-6 3-4 5h-3l-2 4-3 1v2l-4 1-2 4h-2v2l-5 2v2h-2l-1 5-12 6-5 2-3-6v-5l7-6 16-16 8-7 12-12 5-4h5v-40l-5 1-5 5-4 2-1 3-8 7-8 8h-2l-1 3-8 7-7 8-3 1-2-7v-16l-1-3 1-2 1-111z" fill="#355FEF"/>
<path transform="translate(198,880)" d="m0 0h6l5 4h121l6 1 1 7 11 1v2l-13 1-5 9-5 1h-111l-6 4-19 19-8 2h-16l-6 3-30 30-3 5-2 9v9l3 9 9 10 11 11 1 17 6 8 15 15 2 1 15 1 5 3 8 7 7 8 5 4 7 2h19l10-3 4-4h2l2-4 9-11 1-2 1-22 4-6 14-13 2-1 24-1 1-4-3-6v-2l-25 1-6 3-5 4-5 6-7 6-3 5-1 4v16l-3 7-8 9-1 8-5 4-6-1-3-4-18-1-8-4-14-16-4-3-9-2-8-7-9-9-2-10-13-16-9-10-2-5 1-13 3-9 11-11 7-9 4-3 3-1 28-1 9-9 2-10 5-5 6 1 4 5-1 7-6 3-6 2-11 11-2 1h-24l-7 2-12 13-1 2h-2l-2 4-3 7v13l6 9 10 11 7 8 1 1 2 10 9 10 4 3 9 1 4 5 7 6 5 7 2 1v2l5 2 12 2 6-2 8-4 7-3 6-8 1-21 3-5 7-7 9-11 5-4 3-1h37l1 16-3 7 1 6 3 4 1 6-3 3-5 2-4-1-3-4 1-7 3-5v-5l-1-1h-9l-1 13 1 5 4 5v5l-6 5h-5l-4-6 1-5 5-5v-16l-3-1-6 4-10 10-1 2-1 24-9 10-9 9-9 6h-33l-6-4-18-18-2-1-16-1-8-7-11-11-7-9-2-16-8-10-8-8-5-7-1-8 1-18 4-7 35-35 7-2 19-1 7-4 9-10 7-8 2-1 109-1v-10l-36-1h-74l-2 5-1 1-9 1-9 10-5 7-16 1-2-1-2 5-12 3-9 7-13 13-1 9-2 2h-7l-5-3v-8l2-3 13-3v-2l8-7 12-10 1-7 4-5 6 1 6 4h7l6-3 12-11 3-6 3-8z" fill="#B7A9A9"/>
<path transform="translate(405,1182)" d="m0 0 8 1 3 3v7l-2 3-10 1-4 6-4 1h-43l-7 1-10 9-21 21-7 2-11 1-1 12 9-1h21l6 4 13 12 2 4 1 31 4 6 12 12-3 5-8 8-2 4 13 1 8-7 7-7 2-5-4-5-11-9-7-9-2-6-1-27-4-6-10-10-1-8 6-9 5-6 2-7 3-4 4-1 6 3 2 2 5 1h29l8-1 9-8 4-6 1-9 4-4h7l3 3v8l-2 3-8 1-17 17-14 1h-28l-5 4-10 2-4 5-4 6 1 5 10 10 5 8v28l3 7 13 12 8 7 1 3-6 8-12 13-3 2h-11l-13-4 2-5 11-11-1-5-11-10-2-5-1-32-5-6-8-6-3-1-12-1h-10l-7 1 1 8 7 1 16 1 8 7 3 4 1 32 6 8-2 5-7 6-10 4h-8l-4-4-1-4 4-5 6-1 5 3 3 2h4l2-3-1-5-4-5v-30l-3-6-5-2h-19l1 6 8 7 5 7 1 3v14l-3 3-23 1-5 4-7-1-3-3-1-6-12-6-11-8-5-3-1-2v-56l1-7 1-1 9-1 12-13 4-2h35l8 7v2l8 4 12-11 9-8 4-2 54-1 1-5 3-10zm-133 30-8 6-6 7-1 4 5 4h14l2-9 16 1 1 1 1 7 2 1 13-2 2-2-1-6-9-10-9-2zm9 16-1 3v42l1 1h11v-45l-1-1zm-32 1-2 2v55l9 7 15 10 4 1h6l7 4h20l1-1-1-10-3-7-10-10-2-1-13-1-3-1-2-5-6-4-2-5v-9l1-4 7-1 1-1v-10l-14-1-7-4-4-4zm23 25-1 1v8l3 3 2-1v-11z" fill="#C5B5B6"/>
<path transform="translate(657,1135)" d="m0 0h4l2 6 2 5-3 4v11l3 1 2-4 8-8 7-5h3l-2 4-10 9-32 32v8l-5 5v31l4 4 1 9-6 4-7 2-5 6-8 7-3 7v40l1 6 8-7 2-2 1-35 17-16 6-7 1-6 1-27 7-9 16-16 3-1h38l-2-11-1-2-37-1 2-4 9-9 7-8 10-9 5-3-1-2 8-1 2-1 5 1-2 4h-9l-24 24-2 3h24l8-6 5 2 3 3v7l-4 4-1 8-1 4-31 1-11 2-8 7-9 9-3 7-1 8v53l-3 5-9 10-17 16-13 12-5 5-6 5-9-1-12-10-7-8-7-4-8-1-8 4-3 2-4-1-4-5-1-3 4-6 2-2 4 1 8 5 10 2-2-15-4-7 2-5 3-3 8 2 2 2v7l-5 5v10l2 6 10 8v-40l-5-6v-5l8-7 6 4 2 4-1 5-3 1-1 4v45l5 6 7 2 5-4 2-3v-55l4-6 13-13 3-6v-6l3-3 1-5v-19l1-10-5 3-46 46-8 7-13 12-7 8-14 14-7 6-5 6-13 13h-2l-2 4-3 1v2h17l37 1 8 7 6 4 4 2 1 2v7l-5 4-9-3-2-3-72 1-2 4h-8l-5-5 1-5 6-5 5 2 5 3h66l6-1-1-4-4-6-60-1-2-1 2-4 8-7 70-70 8-7 39-39v-3l2-7 3-3h5 3l2-6-1-17-4-2-1-4 2-5 3-1h7l3 3v8l-4 2v14l10-9 2-4-2-14-4-7v-7zm4 28m-14 95-12 12-6 5-1 2v25h4l15-15 1-2 1-26z" fill="#A59797"/>
<path transform="translate(546,933)" d="m0 0 6 2 1 4 18 1h10l12 1v1l-39 1 3 6 9 8 7 8 2 1v2h58l-2-20-2-5v-8l7-1 5 3 5 2h5l2 4v14l-2 52-1 5h-1v-37l-1-35-6 2-6 5-1 19h10v48h-1l-1-30-3 4 1 9-1 4h-10l-4 2-5 8-5 1h-52l-14 1-4 3h-7l-2-2-2-10-5-4-5-5-6-7-7-6-6-9h3l5 2 11 11 8 7v2l4 2 3 2v2l5 1 7 3h65l3-3 1-6h-66l-7-3-6-4v-2h-2l-14-16 3-4 18-1-7-8-8-8-19-9-11-1 4 6 12 12-2 2-10-11-5-5-7-6 2-2 6 1 13 1 1-5 2-1h7l3 2 1 7 1 5 8 6 12 12v2l5-1h14l-4-6-9-9-2-3-10-3-4-4 1-5 4-1zm9 39v3h3l-1-3z" fill="#365FEE"/>
<path transform="translate(315,909)" d="m0 0 6 1 2 2v7l-2 6h-7l-6-2h-61l-9 1-8 6-36 36-6 9h20l5-2 14-14 5-4 7-8 7-6 3-9 4-3 5 1 3 3v2h30l7 3 8 6 5 6 8 6v8l-2 3-9-1-5-2h-35l-7 1-7 7-7 8-8 9h-2l1 5-4 8-1 1-7-1-4-4h-19l7 8 8 9 4 8v20l5 5 4-1 2-4 1-23 4-6 26-26 6-3h23l6 1 4-6 6-1 6 4v6l-5 5-5-1-9-4h-16l-10 2-8 7-13 13h-2v2h-2l-2 4-2 3-1 9v14l-4 7-6 4-6-1-5-5-17-1-3-1-6-8-4-12-6-7-8-4-7-2-7-6-1-2-1-14-8-3-1-3v-10l3-7 5-2 4-6 4-1h8l5 2 3 5 4 1 5-6 8-7 4-5 16-14 9-11 6-5 3-1h71l2-5zm-53 30-5 4h-8l-9 10-25 25-25 1-2 1 1 7 6 5 7 1 21-1 4-4 8-1 7-9 7-7 7-8 3-2 45-1 4-5-1-4-8-8-8-4zm-95 24-1 3 1 1h9l-1-3-2-1zm-10 8-2 2v11l2 1h23l4-1 1-11-1-1zm12 17-6 2 1 14 4 4 10 2 11 8 6 9 4 12 2 2 5 1h10l1-3-1-18-4-6-15-16-7-7-6-4h-2l1 5 3 4-1 5-4 4-6 1-2-4v-7l1-7z" fill="#B6A8A8"/>
<path transform="translate(439,933)" d="m0 0 7 1 4 5v5l-2 4 8 6 7 7 4 5v2h25l7 2-4 2h-8l1 3-4-1h-2l-5 1-1 2 5 1 32 32 8 7 5 7 8 1v1l-35 1h-21l14 13 8 7 7 7 6 7h6l4 3v2l6 1 57 1v-14l-58 1-8-6-15-16-4-5 4 1 10 10 11 10v2l7 1h53v-3l4-1 3 2h27l11-1 4-6 4-1v-2h4l1-17h1l1 14 4-2 11-11 3 1-10 9-5 6-3 2-1 20 8-1 4 2 2-4 5-2-6 7-2 9-2 2-10 1-1-4-4 1-8-1 1-4 9-4 2-1v-13l-2 5-1 1-47 1-3 3 1 10-5 1-62-1-2 5-1 1h-6l-3-5-5-10-11-12-16-16-6-5-5-2-3-7-15-14-12-12-8-5h-2l-6 9 12 12 7 5 7 8 31 31 6 5 2 3v6l-10 15-1 2 2 1h-3v-2l-2 1h-15l4-2 7-10 5 2h3l6-7 1-4-27-27-8-7-22-22-7-5-1-7h-2l-4-5 1-6 2-3h6l12 5 7 4 17 17 5 7 2 1 1-2 1-20-1-22-19-19v-2l-9-3-3-3 1-9z" fill="#365FED"/>
<path transform="translate(691,909)" d="m0 0h24l8 1 1 161v7l-2 3-1-1-1-11-2-5 2-3-6 3-4 5h-3l-2 4-3 1v2l-4 1-2 4h-2v2l-5 2v2h-2l-1 5-12 6-5 2-3-6v-5l7-6 16-16 8-7 12-12 5-4h5v-40l-5 1-5 5-4 2-1 3-8 7-8 8h-2l-1 3-8 7-7 8-3 1-2-7v-13h2v-6l9-7 14-13 7-10 4-4 1-2 1-30 2-5 6-4 8-1 1-18-6 1h-2l-2-4v-6h2v-2h-2v-2l-7-2-1 2-4-2v2l-5-1-15-1-7 1-5-1v-4z" fill="#355FEE"/>
<path transform="translate(540,642)" d="m0 0 6 1 6 5 7 2 10 2 2 10v22l4 7 9 9 4 5v106l12 4-1-113-3-7-7-6v-2l-4-2-3-3v-12l-1-4-4-2-1-4 7-8 5 1 4 4 1 4-5 10v7l4 6 11 9 1 2v124l-3 1-17-6-1-2-1-104-3-6-14-13v-32l-11-3-7 1-1 5 1 70 7 7v13l-1 4 6-3 4-5 2-8v-16l-5-6v-7l5-4 7 1 4 4-1 7-3 2-1 7-1 18-4 7-6 7-4 3-1 3-1 23h-1l-1-7-1-4v-6h-1l-2-7-7-9-12-2-2-2v-10l5-3 7 2 2 4 2 9 7 3v-15l-9-9-1-9v-63l-3-5-1-1v-6z" fill="#B7A9A9"/>
<path transform="translate(317,1060)" d="m0 0 3 3 9 30 3 9 3 3 1 6-3 5-6 1-5-4-1-6 4-5-2-11-6-21-1-3-2 4-1 12v21l-2 9-12 13-3 1-1 3-79 79-2 5-1 49-5-3-8-9-7-11-1-6v-31l3-5h2l2-4 8-7 82-82 3-6 1-14-6 3-45 45-7 8-24 24h-2l-2 4-7 6-1 2h-2l-2 4-11 11-4 6 1 7 6 8-1 6-7 3-4-1-4-7 3-7 1-1v-7l-1-4 108-108 7-8 6-5 1 2v28l-7 8-77 77-8 7-6 7-1 30 2 8 5 7v2l5 2-1-7v-13l1-22 7-8 86-86 5-6 2-43z" fill="#BCAEAF"/>
<path transform="translate(198,880)" d="m0 0h6l5 4h121l6 1 1 7 11 1v2l-13 1-5 9-5 1h-111l-6 4-19 19-8 2h-16l-6 3-30 30-3 5-2 9v9l3 9 9 10 11 11 1 17 6 8 11 11-2 4-7-6-11-12-2-3-2-16-8-10-8-8-5-7-1-8 1-18 4-7 35-35 7-2 19-1 7-4 9-10 7-8 2-1 109-1v-10l-36-1h-74l-2 5-1 1-9 1-9 10-5 7-16 1-2-1-2 5-12 3-9 7-13 13-1 9-2 2h-7l-5-3v-8l2-3 13-3v-2l8-7 12-10 1-7 4-5 6 1 6 4h7l6-3 12-11 3-6 3-8z" fill="#CABBBC"/>
<path transform="translate(542,1079)" d="m0 0h7l2 5 35 1 1 1v11l11-1h54l2 5 9 1 1 2-13 2h-25l-1 6-1 1h-14l-17-1-6-1v14l-31 1-4-2v-2h2l-1-3 2-2 10-1h11l6-1v-2l-8 1-11-1-9-2h-7l-3 5 1 8v3l4 1v3l3 1-1 4-9 1-4-1-1-4 1-6v-30l1-9-1-2h3v-5z" fill="#5975DD"/>
<path transform="translate(643,985)" d="m0 0h1l1 34-2 21h-4v2l-5 3-3 5-11 1h-27l-4-2h-3v-21l-1-1-18-1 1-4-2-4h-20l4-4 15-1h52l4-1 5-8 4-2 10 1-1-3 1-4-1-7h2z" fill="#355FEE"/>
<path transform="translate(1276,857)" d="m0 0 5 1 11 6 11 8 9 9 10 14 5 11 4 13 2 15v208l-6 1h-50l-1-1-1-59v-106l1-38h2l1 3 1 19v147l1 28 2 2 10 1 5-1 17 1 9-1 2-1-1-7-1-5 2-13 1-18v-25l1-29v-96l-3-24-2-5v-10l-5-9-6-7v-2l-3-1-5-7-8-7-4-3v-2l-5-2-11-7z" fill="#2954E4"/>
<path transform="translate(121,1019)" d="m0 0 5 3 6 12v2l4 2 11 12 8 7 7 8 8 10 17 1 8 6 17 17 5 1h20l9-4 5 4 2 3-1 7-2 1-10 1-8 6-23 23h-2l-1 3-6 5-7 8h-2l-1 3-8 7-19 19h-3l-5-9-7-16-4-10 1-1h13l10-6 5 2 3 4-1 6-4 4-6-1-4-3h-10l5 13 5 11 4-2 6-6h2l2-4h2l2-4h2l2-4 24-24-6-7-21-21-8-7-6-4-8-1-5-4-7-8-17-17-6-2-6-1-3-5 3-8 2-1h6l3 3 4 10 25 25 5 3 9 2 8 7 18 18 6 5 7 8 4-2 21-21 1-2-27-1-12-13v-2h-2l-6-7-3-2-5-1h-11l-8-7-15-16-9-9-7-8-6-4h-6l-5-5-1-4 6-7z" fill="#B7A9A9"/>
<path transform="translate(961,909)" d="m0 0 26 1v1l-21 1-2 2-1 5h2l-1 7v24l-1 77 1 19-1 32v62l23-1 23 1 1-3h2l-2-4-1-19v-12l1-2v-52l1-32-1-4 1-4v-24l1-13 1-5v-24l-1-7 1-2-2-8-1-9-4-1v-3h-7l-1-2h20v231l-2 1-34 1h-21l-1-35v-198z" fill="#2B55E4"/>
<path transform="translate(480,1189)" d="m0 0 10 3 22 1-2 4-10 10h-2l-2 4-33 33h-2l-2 12-4 4-6-1-4-4v-6l4-4 10-2 6-7h2v-2h2v-2l31-31v-3l-7-2-5 7-2 1h-10l-6 8-3 1-2 4-36 36-9 1-22 1-1 4v8l9 10 8 8h5l7 5 41 1 3-1 3-4 7-1 5 5-1 9 7 5 3 3 7-7 7-8 51-51 6-9 1-5-1-1v-7l7-8 3-3h2l2-4 2-1 5 1-5 5-8 7-3 4 1 10-4 8-14 15-53 53-4 5-3 1-10-9v-3l-6 1-7-4-7-1h-39l-1 3-7 1-5-2v-8l-7-8-3-3v-2l-4-2-4-5-1-2-1-16 1-2 31-1 7-3 42-42 7-14z" fill="#AB9D9D"/>
<path transform="translate(338,724)" d="m0 0 1 2-2 5-6 7-8 7-3 6 1 5-2 10-5 5-4 1h-12l-4 3h-2l-2 4-6 5-5 6-39 39-5 6-6 4-58 1-19 1-7 20-1 2v10l4 2h11l6-4 9-8 4-7 3-9 7-2 4 3 1 3h150l6-4v2h2v2l-6 4-7 1h-112l-33 1-5 3-7 3-16 14-4 5-6-1h-11l-4 3-5-1-5-5 2-6 3-3h2l3-10 7-18 2-5 1-1 78-1 37-37 7-8 19-19 3-2 19-1 3-6v-12l3-6 16-16z" fill="#B7A9A9"/>
<path transform="translate(462,636)" d="m0 0 5 3 5 12 15 15 4 5 5 4 9 4 14 14 1 2v89h-1l-1-73h-1l-1 29h-1l-1-43-7-8v-2l-4-2-5-2h-95l-4-2-4-5-4-2h-62l-2 2h-9l-3-4 1-7 3-3 9 1 5 5h53l-1-4-8-1-5-4v-8l4-3h7l3 3 2 12 4 2 6 7 4 4 37 1 9-1-7-8-8-8-6-4-8-4-1-4 2-5 3-2h7l3 3 1 10 8 7 7 8 6 5 1 2 16 1h13l3-1-9-10-13-13-10-3-3-5 4-6z" fill="#C7B8B9"/>
<path transform="translate(661,674)" d="m0 0 8 1 12 4 3 2-1 4-8 7-14 14-6 8-1 7v9l6-4 12-11 8-8 7-8 3-8 3-5 1-1h5l5 5v6l-3 3-10 3-15 15-8 7-2 3h-2l-2 4-5 5-6 5h-2l-1-2v-21l3-7 14-15 10-10 1-4-6-2h-8l-24 24-1 2-1 15v44l1 8 18-18 8-7 10-10 3-10 5-4 5 1 3 5-1 6-5 3-7 2-38 38-2 4v12l5 5 8 7h3l5-12 6-15v-5l-2-4 1-4 5-3 6 1 3 2v7l-8 8-8 18-5 13-3 2-10-8-10-9-1-2v-90l4-6 7-7 7-6 7-8z" fill="#C8BABB"/>
<path transform="translate(1414,850)" d="m0 0h5l2 3-1 6-1 26v7l-1 5h-2l1 3 2 1v2l31-2 6 1 5-1 11 1h9l19 1 9-1v2h2v-2l5-2h3v2h3 18l9-1 9 1 13 3 3 2 1 5-6-2-10-3-2 4-3 1v-4h-20v2l-3-1h-62l-3 4-1 4-1 13v39h-5l-1-16-1-26-1 54v54l-6 5-7 8-10 10-10 8-3 3-2-1 16-16 7-8 5-4 4-7 1-4v-121h-36l-1-1zm42 57-2 2 1 1 1 7 2 1v-2h2l6-8z" fill="#2D57E3"/>
<path transform="translate(315,909)" d="m0 0 6 1 2 2v7l-2 6h-7l-6-2h-61l-9 1-8 6-36 36-6 9h20l5-2 14-14 5-4 3-3-2 5-1 1 2 2-19 19-27 1 1 9 1 3-8-4 2 5 3 4-1 5-5 5-4 1-5-5v-7l2-7-10 1 1 14 3 3 10 2 10 7-1 2 3 4-4 1-5-5-6-3-7-2-7-6-1-2-1-14-8-3-1-3v-10l3-7 5-2 4-6 4-1h8l5 2 3 5 4 1 5-6 8-7 4-5 16-14 9-11 6-5 3-1h71l2-5zm-148 54-1 3 1 1h9l-1-3-2-1zm-10 8-2 2v11l2 1h23l4-1 1-11-1-1z" fill="#C6B6B7"/>
<path transform="translate(257,697)" d="m0 0 5 1 6 3 89 1v1l-15 1v3l-75 1-3 3-10 1h-4l3 6 9 9 2 5v11l-3 7-8 8-7 6-5 5-6 4-15-1-2 4-24 24-8 6-2 1h-9l-11-1 2-5 13-16 9-10 11-11 4-3-2-4v-5l4-5 5-1 12 7h5v-2h2v-2l8-7 3-5-10-4-3-4 1-6 5-5 5 1 4 5 2 12h2l-1 5-12 12-7 4-8-1-12 8-17 16-10 11-6 9-1 3 10-1 8-5 18-18 7-8 4-3 17-1 10-9 7-7 4-6 1-3v-8l-5-10-10-9 1-3 8-6 3-7z" fill="#C6B7B8"/>
<path transform="translate(1028,786)" d="m0 0h6l3 2-3 23v5l2 2v3l14 1 1 1-1 60-1 11-3 5h2v4h-4l-5 4 5 2-4 3h-6l-5-9-1-81 1-5v-12l-1-3-1-14z" fill="#FCFCFC"/>
<path transform="translate(694,1208)" d="m0 0h21l3 2v18l-20 1-8 3-3 4-1 5v64l18-8 3-2 3-7 1-1 1-7v-27l-3-6-1-1v-5l6-5 5 1 4 3v7l-4 5v34l4 4-1 6-5 5-10-1-19 10-5 1-1-1-1-37v-36l4-6 6-5 2-1 14-1h6l-1-11-15-1-10 1-8 5-3 1-5 10v62l-6 9-20 20-7 13-2 2-4-1-5-6v-5l3-3h9l5-5 3-4h2l2-4 12-12 2-4v-52l1-11 4-7 5-6 8-5z" fill="#B2A2A3"/>
<path transform="translate(451,1189)" d="m0 0h12l1 2v8l-3 3-10 2-7 8-14 15-4 4h-2v2l-7 4-45 1 2 6 6 8 1 20 4 8 13 13 7 8 7 6 7 1h36l8 2 11 9 4 5-1 4-8 10-5 5-3 1h-78v-3l8-7 6-6 43-1 8-5 6 2 2 2v7l-4 4-6 1-7-6h-38l-5 2-2 5 3 1h59l7-3 7-8 1-4-7-8-6-4-5-1h-41l-6-3-12-13-16-16-3-5-1-22-6-8-2-8v-3l2-1 49-1 4-1 1-3h2l2-4 16-16 6-5 2-12z" fill="#B3A4A4"/>
<path transform="translate(643,968)" d="m0 0h2v48h-1l-1-30-3 4 1 9-1 4h-10l-4 2-5 8-5 1h-52l-14 1-4 3h-7l-2-2-2-10-5-4-5-5-6-7-7-6-6-9h3l5 2 11 11 8 7v2l4 2 3 2v2l5 1 7 3h65l3-3 1-6h-66l-7-3-6-4v-2h-2l-14-16 2-2 6 3 3 3v2l4 2 8 7 7 3h67l8-3 8-1 2-2 2-9z" fill="#5975DD"/>
<path transform="translate(946,852)" d="m0 0h12l1 1v53l-2 3-7 3-4 4-8 14-9 25-9 38-10 55-6 26-8 24-8 16-7 10-5 5-8 7-9 4-11 3h-13l-13-4-10-6-9-9-8-13 1-3 6 5v3l2 1 1 4h3l7 9 6 3 9 4 6 1 9 1 8-1 5-3 5-1 1-3 4-1v-2h2v-2l4-4h2v-2l4-4 5-10h2l2-4 8-20 3-8 4-17 2-16 2-5 2-15 3-9 1-11 1-1 2-15 2-10 2-5 2-10 2-4 2-7 1-4 3-13 3-5 1-4h3v-2l-2-1h2v-3l5-5 5-4 5-10 2-12 1-14v-11l-1-5-6-1-13 3-8 4-7 3-3 3h-3v2l-5 1 6-7 14-8 9-3z" fill="#2A54E4"/>
<path transform="translate(468,850)" d="m0 0h146l1 5v51l-1 1-76 1h-80l-25 1-12 6-5 5-4 6-2 4-3-1 1-10 1-2h2l1-5 3-1 4-4 9-3h5v2l7-2 13-1 3-1 19-1 5 2 3-1 8-1 5-1h11l5 2v2h27l47-1 21-1 1-5v-5h3l-1-9v-17l-2-11-3 1-5-2-11-1-3 1h-52l-1-1-20-1h-32l-13-1z" fill="#2F57E3"/>
<path transform="translate(321,1124)" d="m0 0 19 1 6 4 6 11 1 7-20-1-8 4-10 10-8 7-10 10-2 3h-2l-2 4-8 8-3 4-3 1h-17l-5 5-9 2-14 14-1 16v30l4 4 1 6-5 5-7-1-4-4 1-6 4-5 1-7v-39l4-5 8-7 5-6 3-9 3-3 6 1 5 3 16 1 6-7 8-7 26-26 3-1 2-4 5-4h12l7-2-4-8-4-2h-7l-9 2-6 1-3 6-2 7-1 1-11-1-2-3v-6l5-5h8z" fill="#BDAEAE"/>
<path transform="translate(429,1188)" d="m0 0h7l3 3v8l-2 3-8 1-17 17-14 1h-28l-5 4-10 2-4 5-4 6 1 5 10 10 5 8v28l3 7 13 12 8 7 1 3-6 8-12 13-3 2h-11l-13-4 2-5 11-11-1-5-8-7 1-2 3 2h4l8 7 1 3-7 8-5 6-1 2 13 1 8-7 7-7 2-5-4-5-11-9-7-9-2-6-1-27-4-6-10-10-1-8 6-9 5-6 2-7 3-4 4-1 6 3 2 2 5 1h29l8-1 9-8 4-6 1-9z" fill="#C4B4B5"/>
<path transform="translate(713,933)" d="m0 0h5l2 1v11l-1 2-10 3-4 3-1 8-1 26-4 6-5 5-6 8-15 14-5 3-1 6-2-3-1-3 1-2 1-85 4 2 7-3 11-1 3 5v5l-3 3-15 1-3 9v15l1 12v12l2 4v3l5-3v-3h2l1-6v-21l-1-12 2-5 4 4 1 7v27l1 2 5-2 4-2 1-5 2-32 3-5 3-3 4-8z" fill="#5875DD"/>
<path transform="translate(643,1049)" d="m0 0h1v14l-7 4-5 2-1 3h11l2-2v7l-4 4-10 3-6 1-37 1v-17l4 1-2-10 4-4 47-1z" fill="#345EEE"/>
<path transform="translate(644,1023)" d="m0 0h1l1 14 4-2 11-11 3 1-10 9-5 6-3 2-1 20 8-1 4 2 2-4 5-2-6 7-2 9-2 2-10 1-1-4-4 1-8-1 1-4 9-4 2-1v-13l-2 5-1 1-47 1-3 3 1 10-5 1-62-1-2 5-1 1h-6l-3-5-5-10-11-12-21-21 3-1 14 13 8 7 7 7 6 7h6l4 3v2l6 1 57 1v-14l-58 1-8-6-15-16-4-5 4 1 10 10 11 10v2l7 1h53v-3l4-1 3 2h27l11-1 4-6 4-1v-2h4z" fill="#5B76DC"/>
<path transform="translate(417,694)" d="m0 0h75l7 2 4 7 1 6v71l-14 1h-54l-11-1-7-6-2-5v-74zm5 5-1 1v69l3 5 2 2 4 1h65l4-1 1-11v-17l-1-43-2-4-6-2z" fill="#C7B8B9"/>
<path transform="translate(303,722)" d="m0 0 7 1 2 3v8l-2 2h-8l-3-2v-2h-12l-3 3-3 10v8l-4 6-55 55-1 2h-2v7l-4 6-6-1-5-5v-5l6-5 7-1 19-19-2-1h-11l-8 7-13 13h-2l-1 3-9 7-7 1h-11l-6 6-7-1-4-3 2-9 2-2 7 1 10 3 11-1 7-4 9-9 8-7 8-8 6-4 13-1h6l26-26 5-6 1-13 3-6 5-5 15-1 2-4z" fill="#C4B4B5"/>
<path transform="translate(1523,851)" d="m0 0h44l18 3 15 5 12 8 10 9 7 7 10 15 7 19 1 4 1 14v148l-4 1h-31l-10 1-9-2-1-1-1-8 5-3 5 4 7 1 8 1 1 3h2v2h2l1-4 1-1 14 1 5-3-1-4v-13l1-1 1-38v-86l-1-5v-5l-1-1-2-9-2-4v-3h-2v-5h-2v-3h-2l-3-6-6-9-7-6v-3h-3l-1-3-10-7-7-4-7-1v-2h-6l-2-1-13-2h-38l-15-1v-1z" fill="#2C56E5"/>
<path transform="translate(606,652)" d="m0 0h9l2 2 1 6 16 4 12 4v4l-25 25v114l13 9 4 3h7l5 3 1 2v6l-4 4-7-1-3-4-3-8-15-9-7-6 2-1 2 1-1-113 3-5 15-14 4-5-4-3-5-2h-5l-1 3-8 3h-5l-7-14 1-5zm11 11-3 3v2l5-1v-4z" fill="#CDBFC0"/>
<path transform="translate(317,1060)" d="m0 0 3 3 9 30 3 9 3 3 1 6-3 5-6 1-5-4-1-6 4-5-2-11-6-21-1-3-2 4-1 12v21l-2 9-12 13-3 1-1 3-79 79-2 5-1 42h-1v-10h-2l-2-13 1-23 7-8 86-86 5-6 2-43z" fill="#B1A1A2"/>
<path transform="translate(579,1246)" d="m0 0h5l-2 4-10 9-12 11-7 8-14 14-7 6-5 6-13 13h-2l-2 4-3 1v2h17l37 1 8 7 6 4 4 2 1 2v7l-5 4-9-3-2-3-72 1-2 4h-8l-5-5 1-5 6-5 5 2 5 3h66l6-1-1-4-4-6-60-1-2-1 2-4 8-7z" fill="#AC9E9E"/>
<path transform="translate(210,901)" d="m0 0h93v1l-29 1-5 2-22 1h-33l-6 4-19 19-8 2h-16l-6 3-30 30-3 5-2 9v9l3 9 9 10 11 11 1 17 6 8 11 11-2 4-7-6-11-12-2-3-2-16-8-10-8-8-5-7-1-8 1-18 4-7 35-35 7-2 19-1 7-4 9-10 7-8z" fill="#CBBDBE"/>
<path transform="translate(364,1090)" d="m0 0 4 5 3 6h3l2 4 4 6 5 3 6 2v2l4 1v2h2l4 4 5 3 6 2v2h12l11 4 9 1h48l5 1 2-1 5 4 4 1v-5l2-1h11l15 1 2 4-1 2h-100l-15-2-16-4-11-6-4-1-1 3-3-6-16-16-9-13-2-6 4 2z" fill="#2853E4"/>
<path transform="translate(719,1007)" d="m0 0h2v18h2l1 32v21l-2 3-1-1-1-11-2-5 2-3-6 3-4 5h-3l-2 4-3 1v2l-4 1-2 4h-2v2l-5 2v2h-2l-1 5-12 6-5 2-3-6v-5l7-6 16-16 8-7 12-12 5-4h5z" fill="#365FED"/>
<path transform="translate(708,1016)" d="m0 0 3 1-1 16-4 11-2 3h-2l-1 3h-2l-2 4h-2l-2 4-7 6-1 2h-2l-1 3-8 7-5 4-3-1-1-4v-13l1-9 5-1 6-7 8-7 10-9z" fill="#355FEE"/>
<path transform="translate(714,1093)" d="m0 0h4l5 3v17l-5 4-2-9-1 3-8 7-12 11-6 7 1 3 8-4 5-5 4-5 4-1 1 6 1 4-3 8-5 2h-19l-8 1-9-2v-2h-2l1-10h2l1-8h2v2l8 2 9-4 4-9 4-5 7-5z" fill="#355FEE"/>
<path transform="translate(717 1e3)" d="m0 0 3 1v40l-2 1-5 1-5 5-12 11-16 15-10 10h-2l-1 3-2 2v-6h-48v-1l18-3 6-3h2l1-2v6l21 1v-6l4 1 8-7h2l1-3 3-3h2l2-4 7-6 5-6 3-3h2l2-5 3-9 1-16-4 2-18 18-8 7-3 1-2 4-4 4h-6v-10l2 2 1 3 15-15 8-7 8-8h2l1-3 8-7 3-1 1-3z" fill="#5975DD"/>
<path transform="translate(1363,1089)" d="m0 0h6l1 1v8l3 4v2l7 1h41v1l-22 2-3 1v3h-10l4 7 9 7 6 4h6v2l8 1 9 5h10l5-1 2 1 16 1 6 1 9-1 66 1h33l8-3-1-12-2-7-3-4 9-4h2l1 2v25l-1 5-5 1h-144l-15-2-15-5-12-6-11-8-8-7-9-14-6-10z" fill="#2E58E5"/>
<path transform="translate(583,652)" d="m0 0 5 1 4 4 1 4-5 10v7l4 6 11 9 1 2v124l-3 1-17-6-1-2v-47l3-3h1l1 49 12 4-1-113-3-7-7-6v-2l-4-2-3-3v-12l-1-4-4-2-1-4z" fill="#BEADAE"/>
<path transform="translate(1580,925)" d="m0 0 3 3v106l-6 10-9 9-9 6-6 1h-29l-9-3-8-7-2-4-1-6v-75l4-1 1 59 1 20 2 7 6 3 13 1h11l3-2h5l-2 2 9-1 11-8 8-7 2-3 1-5v-33z" fill="#B8AAAA"/>
<path transform="translate(639,1019)" d="m0 0h5v15l-1 6h-4v2l-5 3-3 5-11 1h-27l-4-2h-3v-19l3 3h21l8-2 13-4 6-5z" fill="#5975DD"/>
<path transform="translate(657,1135)" d="m0 0h4l2 6 2 5-3 4v11l3 1 2-4 8-8 7-5h3l-2 4-10 9-32 32v8l-5 5-2 11h-2v-12l-5 3-42 42-4-2 45-45v-3l2-7 3-3h5 3l2-6-1-17-4-2-1-4 2-5 3-1h7l3 3v8l-4 2v14l10-9 2-4-2-14-4-7v-7z" fill="#A29494"/>
<path transform="translate(334,863)" d="m0 0 6 1 5 5-1 7-2 3h-6l-5-4-1-2h-134l-8 7-13 13-3 4-3 1h-22l-7 6-3 5-3 8-5 3-4-2-3-5 1-7 3-3h9l6-7 5-3h19l7-3 12-12 5-6 5-3 134-1 4-2z" fill="#CEC1C2"/>
<path transform="translate(549,1202)" d="m0 0 4 2 1-2 1 20 1 2v7l-6 5h-5l-7 8-12 12-8 7-22 22-1 2-4-2-10-10-7-3h-49l-3 4-7-1-3-3-1-7 4-4 4-1 8 5 49 1 5 3 11 11 4-1 32-32 7-8 6-6 1-9 5-4h2z" fill="#B3A3A4"/>
<path transform="translate(655,1111)" d="m0 0 7 1 2 2-2 10-10 7-10 8-13 13-4 5-8 5-13 2v10l7 2 1 1v18l-6 2h-2l-1 3h-2l-1-2v-43h-12v-4l-5 1 1-2h11l8 1 1 8 12-2 5-3-1-4-11-12-6-2-16-1v6h-1v-8h23l8 6 8 9 4-1 14-15 9-8-1-3-9-1h-55v-3l33-1 5 1 27 1 2-6zm-52 68v10l2 4 3-1v-11l-2-2z" fill="#A5989B"/>
<path transform="translate(362,1153)" d="m0 0h6l3 2 1 7-2 5-6 1-6-3-5-3-14 1-9 6-9 8-7 8-4 4-1 3h17l15-15 5-2 35-1 4-5 9 2 2 5-3 8h-6l-4-3-14-2h-14l-9 1-8 7-9 10h-19l-11-1 2-4 12-13 8-8h2l2-4 9-8 2-1h17l8-4z" fill="#C4B4B5"/>
<path transform="translate(187,845)" d="m0 0 5 3 1 3h150l6-4v2h2v2l-6 4-7 1h-112l-33 1-5 3-7 3-16 14-4 5-6-1 1-4-4-1 9-2 10-8 6-8 3-10z" fill="#BFB3B3"/>
<path transform="translate(294,1074)" d="m0 0 2 2-1 20h-2v-11l-6 3-45 45-7 8-24 24h-2l-2 4-7 6-1 2h-2l-2 4-11 11-4 6 1 7 6 8-1 6-7 3-4-1-4-7 3-7 1-1v-7l-1-4 108-108 7-8z" fill="#B8AAAA"/>
<path transform="translate(1476,943)" d="m0 0 4 1 1 11 1 2-1 2-1 91-5 5-8 9h-2l-2 4h-2v2l-8 7-8 8-3-2 12-13 11-12 7-9 1-2v-101z" fill="#A19292"/>
<path transform="translate(586,1088)" d="m0 0h1v9l11-1h54l2 5 9 1 1 2-13 2h-25l-1 6-1 1h-14l-17-1-6-1-1 3z" fill="#C0AFB0"/>
<path transform="translate(1466,908)" d="m0 0 3 2-3 3-1 4-1 13v39h-5l-1-16-1-26-1 54v54l-6 5-7 8-10 10-10 8-3 3-2-1 16-16 7-8 5-4 4-7 1-4 1-119h4l1 7 3-1 2-4z" fill="#C3B3B4"/>
<path transform="translate(198,880)" d="m0 0h6l5 4v2l2 1h-3l1 4-3 4-9 1-9 10-5 7-16 1-2-1-2 5-12 3-9 7-13 13-1 9-2 2h-7l-5-3v-8l2-3 13-3v-2l8-7 12-10 1-7 4-5 6 1 6 4h7l6-3 12-11 3-6 3-8z" fill="#B4A5A5"/>
<path transform="translate(284,681)" d="m0 0h7l5 5 83 1 5 2 7 8 8 8 4 6 1 3v55h-1l-1-6h-1l-1 5h-1v-50l-5-10-15-15-10-2h-74l-2 4h-10l-2-3 1-9z" fill="#CBBEBE"/>
<path transform="translate(661,674)" d="m0 0 8 1 12 4 3 2-1 4-8 7-14 14-6 8-1 7v9l6-4 12-11 8-8 7-8 3-8 3-5 1-1h5l5 5v6l-3 3-10 3-15 15-8 7-2 3h-2l-2 4-5 5-6 5h-2l-1-2v-21l3-7 14-15 10-10 1-4-6-2h-8l-19 19h-3l2-4 18-18z" fill="#B1A3A3"/>
<path transform="translate(434,711)" d="m0 0h53l1 1v52l-1 1h-52l-1-1-1-37v-15zm11 4-6 1-1 3v39l1 2h44l1-1v-42l-1-1-18-1z" fill="#C7B8B9"/>
<path transform="translate(207,918)" d="m0 0 6 1 4 5-1 7-6 3-6 2-11 11-2 1h-24l-7 2-12 13-1 2h-2l-2 4-3 7v13l6 9 10 11 7 8 1 1 1 10-4 1-3-9-13-16-9-10-2-5 1-13 3-9 11-11 7-9 4-3 3-1 28-1 9-9 2-10z" fill="#C4B5B6"/>
<path transform="translate(451,1189)" d="m0 0h12l1 2v8l-3 3-10 2-7 8-14 15-4 4h-2v2l-7 4-45 1 2 6 6 8 1 20 4 8 6 7h-2l-1 3-10-10-3-5-1-22-6-8-2-8v-3l2-1 49-1 4-1 1-3h2l2-4 16-16 6-5 2-12z" fill="#C4B5B6"/>
<path transform="translate(1101,903)" d="m0 0h118l30 1 11 2v2l5 2 10 11 2 6-1 5-2-1-6-12-7-6-9-4-6-1h-141l-6-1v-3z" fill="#2E57E3"/>
<path transform="translate(124,1080)" d="m0 0h7l4 4 4 9 19 19 6 7-4 2h-19v8l1 2h36l6-3 5 1 4 5-1 5-6 5-5-1-3-3-1-3-38-1-3-7v-10l3-3h14l-2-4-16-16-4-1h-7l-3-4v-8z" fill="#B6A7A7"/>
<path transform="translate(271 1e3)" d="m0 0 2 1-2 3-2 4-3 1 1 4-7 6-3 5-1 4v16l-3 7-8 9-1 8-5 4-6-1-3-4-18-1-8-4-14-16-4-3-9-2-8-7-9-9 1-2h5l9 10 4 3 9 1 4 5 7 6 5 7 2 1v2l5 2 12 2 6-2 8-4 7-3 6-8 1-21 3-5 7-7 9-11z" fill="#B4A6A6"/>
<path transform="translate(961,909)" d="m0 0 26 1v1l-21 1-2 2-1 5h2l-1 7v24l-1 77 1 19-1 32v62l23-1 19 1 1 2-24 1h-21l-1-35v-198z" fill="#365DE2"/>
<path transform="translate(121,1019)" d="m0 0 5 3 6 12v2l4 2 11 12 8 7 7 8 8 10 17 1 8 6 17 17 5 1 20 1v4h-28l-12-13v-2h-2l-6-7-3-2-5-1h-11l-8-7-15-16-9-9-7-8-6-4h-6l-5-5-1-4 6-7z" fill="#C3B3B4"/>
<path transform="translate(417,981)" d="m0 0h6l12 5 7 4 17 17v5l-7-6-13-13-8-5h-2l-6 9 12 12 7 5 7 8 31 31 6 5 2 3v6l-10 15-1 2 2 1h-3v-2l-2 1h-15l4-2 7-10 5 2h3l6-7 1-4-27-27-8-7-22-22-7-5-1-7h-2l-4-5 1-6z" fill="#A59697"/>
<path transform="translate(714,1142)" d="m0 0 6 1-2 4h-9l-24 24-2 3h24l8-6 5 2 3 3v7l-4 4-1 8-1 4-31 1-11 2-8 7-4 2 1-3h2l-1-5 7-6 3-1h38l-2-11-1-2-37-1 2-4 9-9 7-8 10-9 5-3-1-2 8-1z" fill="#A09192"/>
<path transform="translate(462,636)" d="m0 0 5 3 5 12 15 15 4 5 5 4 9 4 14 14 1 2v89h-1l-1-73h-1l-1 29h-1l-1-43-7-8v-2l-4-2-5-2-13-1-3-3 3-2 3-1-9-10-13-13-10-3-3-5 4-6z" fill="#BCAEAF"/>
<path transform="translate(253,929)" d="m0 0 5 1 3 3v2h30l7 3 8 6 5 6 8 6v8l-2 3-9-1-5-2h-23l-15-1-1-2 40-2 3-4-1-4-7-7-8-4h-29l-5 4h-8l-7 8-7 7-4-1 3-4 3-5 9-8 3-9z" fill="#A59697"/>
<path transform="translate(1096,1075)" d="m0 0h1v66l-1 1h-54l-1-1v-32l2 3v22l1 6 2-1 16-1 6-2-1-4-4-1-1-3h6l3 5 6 1v2h8l3-2-3-2 4-2v-9l1-7h-2l-1-6h3l2-9v-9l2-7v-3z" fill="#2652E5"/>
<path transform="translate(376,648)" d="m0 0h7l3 3 2 12 4 2 6 7 3 4v3l-4-1-6-4h-62l-2 2h-9l-3-4 1-7 3-3 9 1 5 5h53l-1-4-8-1-5-4v-8z" fill="#AFA0A0"/>
<path transform="translate(691,909)" d="m0 0h24l8 1v115h-2l-1-18v-78l-6 1h-2l-2-4v-6h2v-2h-2v-2l-7-2-1 2-4-2v2l-5-1-15-1-7 1-5-1v-4z" fill="#2D56E3"/>
<path transform="translate(1232,998)" d="m0 0h12l1 1v55l-2 1h-145l1-2 18-1h123l-1-37v-10l-4-3v-2l-3-1z" fill="#2A55E4"/>
<path transform="translate(249,1187)" d="m0 0 6 1 5 3 6 2 2 2-1 1-7 1-5 5-9 2-14 14-1 16v30l4 4 1 6-5 5-7-1-4-4 1-6 4-5 1-7v-39l4-5 8-7 5-6 3-9z" fill="#CABCBC"/>
<path transform="translate(1356,909)" d="m0 0 21 1-5 5-3-1-8 2-1 3-1 42v15l-1 4v14l1 7v23l2 1v20l-1 6v7l-1 5 1 2v11h-2l-3-17v-148z" fill="#2954E5"/>
<path transform="translate(341,746)" d="m0 0 2 2-1 4-3 6v11l-7 9-12 12-7 1-10 1-10 8-22 22v8l-2 4h-7l-6-4v-5l6-6h7v-2l7-6 7-8h2l2-4 11-11 5-3h13l7-4 7-7 3-5-1-12 4-6z" fill="#C5B5B6"/>
<path transform="translate(429,1188)" d="m0 0h7l3 3v8l-2 3-8 1-17 17-14 1h-28l-5 4-10 2-4 5-5 5-2-2 1-4 7-9 2-7 3-4 4-1 6 3 2 2 5 1h29l8-1 9-8 4-6 1-9z" fill="#AEA2A2"/>
<path transform="translate(714,1236)" d="m0 0 5 1 4 3v7l-4 5v34l4 4-1 6-5 5-10-1-19 10-5 1-1-1v-6l1 2 6-2 18-9 3-7 1-1 1-7v-27l-3-6-1-1v-5z" fill="#A29494"/>
<path transform="translate(245,1273)" d="m0 0h1l2 13 15 11 9 6h9l7 4h20l-1-10-3-7-9-9-2-1 1-3 5 1 8 7 5 7 1 3v14l-3 3-23 1-5 4-7-1-3-3-1-6-12-6-11-8-5-3-1-7 2-9z" fill="#A29394"/>
<path transform="translate(119,1050)" d="m0 0h6l3 3 4 10 25 25 5 3 9 2 8 7 18 18 6 5-1 4 3 1-1 3-7-6-17-17-8-7-6-4-8-1-5-4-7-8-17-17-6-2-6-1-3-5 3-8z" fill="#B6A8A8"/>
<path transform="translate(428,851)" d="m0 0h21l13 2-3 2h-10l-11-1-10 2-12 1-6 3-2 2h-5v2l-5 1v2l-8 4h-2l-1 5-4 2-1 3h-2v4l-3 3-3 6-5 8h-4l-3 10-3 2-1 2-2-1 1-9 4-9 8-12 11-12 8-7 16-9 11-4z" fill="#2954E4"/>
<path transform="translate(356,797)" d="m0 0h4l-1 4-5 5v12l5 8v6l-4 3h-6l-5-4v-7l4-7 1-5-8 7-4 2-2 4-6 5-8 2-4 3-6-1-4-4-1-5 4-5 5-2 8 6 2 3 4-2 15-15 7-8z" fill="#A89A9A"/>
<path transform="translate(315,909)" d="m0 0 6 1 2 2v7l-2 6h-7l-6-2h-61l-9 1-8 6-12 12h-2l2-6 11-13 5-4 3-1h71l2-5z" fill="#CABCBD"/>
<path transform="translate(511,1218)" d="m0 0 2 1-1 23-4 15-3 3-8-1-2-6 1-7 1-1 11-1v-18l-5 3-17 17-3 11-2 2h-9l-2-3-1-7 6-4 7-1 3-1 2-4 20-20z" fill="#B7A8A9"/>
<path transform="translate(1432,1084)" d="m0 0 7 1 5-1v2l4 1-14 12-9 4-11 1h-39l-3-4 1-3 36-2 17-2 3-1 3-6z" fill="#5975DD"/>
<path transform="translate(716,1107)" d="m0 0 2 3 1 6 4-4h1l1 30-5 1-6-1-1 2h-8l3-2 2-1 2-10-1-3v-4l-4 1-1 3h-2l-2 5-9 6-3 1-2-4 4-5h2l2-4 13-12 4-4h2z" fill="#5875DD"/>
<path transform="translate(317,1060)" d="m0 0 3 3 9 30 3 9 3 3 1 6-3 5-6 1-5-4-1-6 4-5-2-11-6-21-1-3-2 4-1 12v21l-2 9-7 8h-2l1-5 4-6 2-43z" fill="#A99B9B"/>
<path transform="translate(726,852)" d="m0 0h9l13 2 14 6 9 7-2 1-7-4-7-3-7-4-5 1-10-1-1 10v11l-1 6-1 5 2 7 1 8 10 10 3 6 2 5 3 3 1 8-3-1-8-16-6-8-9-3-1-3v-46z" fill="#2C56E4"/>
<path transform="translate(400,761)" d="m0 0 3 1 3 15 4 7 5 4 11 3 1 3h76l8-1v2l-10 1h-10l11 1v1l-76 1-6 5-6-2-6-14-7-7-1-4z" fill="#A29494"/>
<path transform="translate(580,1203)" d="m0 0 6 1-5 5-8 7-3 4 1 10-4 8-14 15-53 53-4 5-3 1-10-9v-3l-2-1 5 1 5 4 3 3 7-7 7-8 51-51 6-9 1-5-1-1v-7l7-8 3-3h2l2-4z" fill="#AB9D9D"/>
<path transform="translate(772,869)" d="m0 0 7 6 9 11 8 14 10 24 10 35 7 33 5 30 3 11 3 14-1 4-5-10-2-13-4-17-2-12-6-30-1-10-1-5h-2l-1-7-1-5h-2l-2-9-2-6-1-5-5-11-3-9-5-9-9-13-7-9z" fill="#2B56E4"/>
<path transform="translate(568,659)" d="m0 0 3 3v22l4 7 9 9 4 5v92h-1l-1-32h-3l-1-57-3-6-14-13v-25l2-2z" fill="#C5B6B7"/>
<path transform="translate(233,718)" d="m0 0 5 1 4 5 2 12h2l-1 5-12 12-7 4-8-1-12 8-4 4-4-1 1-3 4-3-2-4v-5l4-5 5-1 12 7h5v-2h2v-2l8-7 3-5-10-4-3-4 1-6z" fill="#B1A2A2"/>
<path transform="translate(682,934)" d="m0 0h6l3 5v5l-3 3-15 1-3 9v15l1 12v10l-1 5 3 6h2v3h-2v2h-2l-1 2h-4v-76l4 2 7-3z" fill="#5674DE"/>
<path transform="translate(643,1022)" d="m0 0h1v12l-1 6h-4v2l-5 3-3 5-11 1h-27l-4-2h-2v-7l3-1 19-1 15 2h12l-1-10 6-7z" fill="#355FEF"/>
<path transform="translate(278 1e3)" d="m0 0h37l1 16-3 7 1 6 3 4 1 6-3 3-5 2-4-1-3-4 1-7 3-5v-5l-3-2-6-1v-2l12-2 1-4-3-6v-2l-25 1-6 3-5 4-5 5-1-3 4-3 1-4 4-5z" fill="#B6A7A7"/>
<path transform="translate(477,1285)" d="m0 0 5 1 3 4-1 8-3 1-1 2-5-1-5-3-7-1h-39l-1 3-7 1-5-2v-6l3-4 4-1 6 2 2 1 41 1 3-1 3-4z" fill="#A49697"/>
<path transform="translate(886,910)" d="m0 0 1 2-6 18-3 11-8 26-1 1-1 14-4 17-1 7-3 14-1 11-1 1-2 12-3 8-1 8-5 9 2 1-4 2 1-7 9-38 4-23 9-43 9-31 7-18z" fill="#2B55E4"/>
<path transform="translate(163,1054)" d="m0 0 4 1 4 3 15 1 5 3 8 7 7 8 5 4 7 2h19l10-3 4-4h2l2-4 8-7h3l1-4h1v5l-15 15-9 6h-33l-6-4-18-18-2-1-16-1-6-5z" fill="#B6A8A8"/>
<path transform="translate(1552,916)" d="m0 0 2 1 1 9v35l-2 6-12 14-7 7h-2v2h-2v2h-2l-2 4-2 11-1 26 1 8-3 4h-3l-1-3 2-3 1-29v-14l3-5 7-8 8-7 12-12 1-2z" fill="#A59697"/>
<path transform="translate(338,724)" d="m0 0 1 2-2 5-6 7-8 7-3 6 1 5-2 10-5 5-4 1h-12l-4 3h-2l-2 4-6 5-5 6-16 16-5-1 6-7 9-10 18-18 3-2 19-1 3-6v-12l3-6 16-16z" fill="#C8B9BA"/>
<path transform="translate(456,1221)" d="m0 0 3 1-6 7-24 24-9 1-22 1-1 4v8l9 10 8 8h5l3 3-3 1-4-1-3 3-9-10-2-4-4-2-4-5-1-2-1-16 1-2 31-1 7-3 22-22h2z" fill="#C3B3B4"/>
<path transform="translate(706,1077)" d="m0 0 4 1-1 7-5 9-5 6h-2v2l-4 1-2 4-13 8-5 2-5-6 2-3h2v-2l7-1 2-5 7-6 4-3h2l2-4h2v-2h2l2-4h2v-2h2z" fill="#345EEE"/>
<path transform="translate(495,636)" d="m0 0 5 1 3 3 4 11 8 9 3 5v2l9-1 5 2 2 4v5l-4 3-7 1-3-2-4-11-5-5-6-7-4-3-9-2-3-4 1-7z" fill="#A49696"/>
<path transform="translate(420,1021)" d="m0 0h3l5 6 8 7 19 19 8 7-1 7-6 11-5 5-4-1 11-15 1-5-11-10-21-21-4-3 1 11 12 12 2 6-3 9-8 7-2 3-4-4 3-2 6-5 3-6-1-5-9-10-3-5z" fill="#AB9C9C"/>
<path transform="translate(1510,920)" d="m0 0 2 1-10 7-5 4-2 10v4l3 1-2 1-2-1 1 13v35l-5 2-2-1v-58l3-5 7-6z" fill="#C6B7B8"/>
<path transform="translate(305,979)" d="m0 0 6 1 4 3v6l-5 5-5-1-9-4h-16l-10 2-8 7-13 13h-2v2l-3 1v-3l-2-1 22-22 6-3h23l6 1 4-6z" fill="#B5A7A7"/>
<path transform="translate(484,1335)" d="m0 0 5 2 5 3h70v4l-16 1-56 1-2 4h-8l-5-5 1-5z" fill="#BAACAD"/>
<path transform="translate(477,1027)" d="m0 0 8 6 7 7 8 7 7 7 6 7h6l4 3v2l6 1 53 1 1 2h-59l-2 5-1 1h-6l-3-5-5-10-11-12-21-21z" fill="#A29393"/>
<path transform="translate(549,1202)" d="m0 0 4 2 1-2 1 20 1 2v7l-6 5h-5l-7 8-12 12-5 4-4-2 11-11 7-8 6-6 1-9 5-4h2z" fill="#AD9E9E"/>
<path transform="translate(1586,1110)" d="m0 0h2l1 2v25l-1 5h-122l1-2 9-1 66 1h33l8-3-1-12-2-7-3-4z" fill="#2853E4"/>
<path transform="translate(1426,935)" d="m0 0 5 1v15l-1 13-1 50-3 5-8 7-4 2 2-4 7-7 1-5v-65l1-11z" fill="#9E9090"/>
<path transform="translate(419,932)" d="m0 0 6 1 2 2v9l-2 5-2 20 9-2h8l6 3 10 9 7 7 5 7v2h-2l-7-8-10-10-10-5h-18l-2-23-4-4v-9z" fill="#A39595"/>
<path transform="translate(1453,944)" d="m0 0 2 3 1 88-6 5-7 8-10 10-10 8-3 3-2-1 16-16 7-8 5-4 4-7 1-4 1-81z" fill="#A59797"/>
<path transform="translate(631,934)" d="m0 0 8 1 5 4h7l2 4v14l-2 52-1 5h-1v-37l-1-35-6 2-6 5-1 18h-2l-2-19-2-5v-8z" fill="#908DAA"/>
<path transform="translate(321,1124)" d="m0 0 19 1 6 4v3l-16-1-9 2-6 1-3 6-2 7-1 1-11-1-2-3v-6l5-5h8z" fill="#B3A5A5"/>
<path transform="translate(1586,1087)" d="m0 0 3 3-1 6-18-2-30 2h-53l-1-2 16-2 1 1h24v-2l-12-1v-1l8-1 15 1-3 2 18-1v-1h14l5 1 6-1 2 1z" fill="#2652E5"/>
<path transform="translate(540,642)" d="m0 0 6 1 6 5 7 2 10 2 1 2v6l-2 2-2 4-1-9-11-3-7 1-1 5-1 27-3-2v-2l-1-1-1-23-3-5-1-1v-6z" fill="#A19393"/>
<path transform="translate(380,688)" d="m0 0 4 1 7 8 8 8 4 6 1 3v55h-1l-1-6h-1l-1 5h-1v-50l-5-10-14-14-1-4z" fill="#C3B3B4"/>
<path transform="translate(198,880)" d="m0 0h6l5 4v2l2 1h-3l1 4-3 4-9 1-9 10-5 7-16 1-2-1-1-5 2 1h7l6-3 12-11 3-6 3-8z" fill="#C8BABA"/>
<path transform="translate(1580,925)" d="m0 0 3 3v106l-6 10h-2v-5l3-4 1-5v-33z" fill="#A49696"/>
<path transform="translate(385,792)" d="m0 0h1l1 12 5 6v6l-5 3-7 2-16 16-7 8-6 5-2-1 1-4 8-9 8-7 9-9 2-5 1-7 4-3z" fill="#A39595"/>
<path transform="translate(1411 1e3)" d="m0 0h1l1 11v16l1 4v20l2 17 4 6 9 7 3 2 1 4-3 1-4 4v-8l-1-4-4-2-7-4-3-4 1-17-1-1-2-12-5-10-4-5v-2l7-1 3-10z" fill="#2954E4"/>
<path transform="translate(162,1067)" d="m0 0 5 4 3 4 17 1 8 6 17 17 5 1 20 1v4h-28l-12-13v-2h-2l-6-7-3-2-5-1h-11l-8-7z" fill="#B8A9A9"/>
<path transform="translate(584,1150)" d="m0 0h11l8 1 1 8h5l-3 2 5 1v1l-7 1v10l7 2 1 1v18l-6 2h-2l-1 3h-2l-1-2v-43h-12v-4l-5 1zm19 29v10l2 4 3-1v-11l-2-2z" fill="#AA9C9C"/>
<path transform="translate(529,763)" d="m0 0h9l2 3 2 8 5 5 2 1v-8l2-5h1v11h1l1 9 10 9-2 1-1 3-15-15v-2l-4-2-3-2-9-2-4-4v-6z" fill="#B4A5A5"/>
<path transform="translate(666,1280)" d="m0 0h1l1 7h2l1 4-6 9-20 20-7 13-2 2-4-1-5-6v-5l3-3h9l5-5 3-4h2l2-4 12-12 2-4z" fill="#A7999A"/>
<path transform="translate(417,761)" d="m0 0h3l3 11 3 3 4 1h68v2l2 2-10 1h-54l-11-1-7-6-1-2z" fill="#BDB0B0"/>
<path transform="translate(253,929)" d="m0 0 5 1 3 3v2l23 1v1l6 1v1l-28 1-5 4h-8l-7 8-7 7-4-1 3-4 3-5 9-8 3-9z" fill="#A59797"/>
<path transform="translate(475,975)" d="m0 0 1 2 5 1 32 32 8 7 5 7 8 1v1h-13l-4-5-8-7-9-9v-2l-4-2-17-17-5-8z" fill="#5774DE"/>
<path transform="translate(1276,939)" d="m0 0h2l1 3 1 19v93l-2 1-1-28v-7h-1z" fill="#2752E5"/>
<path transform="translate(406 1e3)" d="m0 0 2 2 1 56 1 9h-2l-1 3-3-1-3-11 2-6-1-2 1-12-2-1 2-7 1-16v-8-3h2z" fill="#2652E5"/>
<path transform="translate(280,702)" d="m0 0h77v1l-15 1v3h-74v-1h13z" fill="#C8B9BA"/>
<path transform="translate(343,1233)" d="m0 0 3 1 2 9 10 10 5 8v30l-3-1-2 2-1-4-1-27-4-6-10-10-1-8z" fill="#CBBDBE"/>
<path transform="translate(1505,964)" d="m0 0h3v70l-1 4v7l4 6 4 2 2 4-5-2-6-7-2-8v-75z" fill="#A49696"/>
<path transform="translate(667,764)" d="m0 0 6 1 3 2v7l-8 8-8 18-5 13-4-1v-2h2l1-7 8-21 1-7-2-4 1-4z" fill="#A39595"/>
<path transform="translate(417,1260)" d="m0 0 5 2 5 3 34 1 3 2-4 2-34 1-4 5-7-1-3-3-1-7 4-4z" fill="#A29494"/>
<path transform="translate(606,652)" d="m0 0h9l2 2 1 6 9 3-2 5h-2l-1 3-8 3h-5l-7-14 1-5zm11 11-3 3v2l5-1v-4z" fill="#A19393"/>
<path transform="translate(586,762)" d="m0 0h1l1 49 9 3h3l1-22 2 1v27l-11-3-8-3-1-2v-47z" fill="#AE9F9F"/>
<path transform="translate(681,724)" d="m0 0 5 1 3 5-1 6-5 3-7 2-30 30h-3l2-4 11-11 7-8 10-10 3-10z" fill="#A39595"/>
<path transform="translate(684,1234)" d="m0 0 2 2v69l2 1h-5l-1-2-1-31v-36l2 1z" fill="#C5B6B6"/>
<path transform="translate(207,918)" d="m0 0 6 1 4 5-1 7-6 3-6 2-11 11h-15l-2-2 13-2 8-7 4-5v-7l4-5z" fill="#B4A5A6"/>
<path transform="translate(468,850)" d="m0 0h104l25 1 3 2h-11l-3 1h-52l-1-1-20-1h-32l-13-1z" fill="#2652E5"/>
<path transform="translate(518,934)" d="m0 0h7l3 2 1 7 1 5 8 6 9 9-3 1-12-12-19-9-11-1 4 6 12 12-2 2-10-11-5-5-7-6 2-2 6 1 13 1 1-5z" fill="#A09292"/>
<path transform="translate(583,652)" d="m0 0 5 1 4 4 1 4-5 10v7l5 8v4l-4-1v-2l-4-2-3-3v-12l-1-4-4-2-1-4z" fill="#B3A5A5"/>
<path transform="translate(405,1182)" d="m0 0 8 1 3 3v7l-2 3-10 1-4 6h-37v-3l36-1 1-5 3-10z" fill="#A09292"/>
<path transform="translate(125,998)" d="m0 0 4 1 18 18 1 17 6 8 11 11-2 4-7-6-11-12-2-3-2-16-8-10-6-6z" fill="#C3B3B4"/>
<path transform="translate(197,766)" d="m0 0 4 2-17 17-10 13-2 5 10-1 8-5 1-1h5l-2 4-8 6-2 1h-9l-11-1 2-5 13-16 9-10z" fill="#B8AAAA"/>
<path transform="translate(417,981)" d="m0 0h6l12 5 7 4 17 17v5l-7-6-13-13-8-5h-2l-6 9v3h-2l-1-5h-2l-4-5 1-6z" fill="#A09191"/>
<path transform="translate(664,1201)" d="m0 0h3l-1 4-2 1-1 4-6 7-2 5-1 8-1 32h-1v-5h-2l-2 2-4 2-3-2 6-7 1-6 1-27 7-9 7-7z" fill="#B2A4A4"/>
<path transform="translate(294,1074)" d="m0 0 2 2-1 20h-2v-11l-6 3-38 38h-2l-1-3 36-36 7-8z" fill="#A59697"/>
<path transform="translate(168,1144)" d="m0 0 5 2 3 4-1 6-4 4-6-1-4-3h-10l3 9-4 1-6-15 1-1h13z" fill="#B4A6A6"/>
<path transform="translate(209,885)" d="m0 0h114v1h-53l-1 3h-47l-14 1z" fill="#E1D9D9"/>
<path transform="translate(694,685)" d="m0 0h5l5 5v6l-3 3-10 3-15 15-7 5-2-2 13-13 7-8 3-8 3-5z" fill="#A49696"/>
<path transform="translate(144,852)" d="m0 0h2l-1 9-1 2v10l8 3 4 1v3l-12 1-4 3-5-1-5-5 2-6 3-3h2l3-10 3-6z" fill="#A39595"/>
<path transform="translate(580,1203)" d="m0 0 6 1-5 5-8 7-3 4 1 10-4 8-14 15-9 9-3-3 18-18 6-9 1-5-1-1v-7l7-8 3-3h2l2-4z" fill="#B8AAAA"/>
<path transform="translate(813,957)" d="m0 0h2l4 15 8 43 2 10 5 22-1 4-5-10-2-13-4-17-2-12-6-30z" fill="#2D57E4"/>
<path transform="translate(159,814)" d="m0 0 7 1 10 3 11-1 6-2 2 3-5 4-7 1h-11l-6 6-7-1-4-3 2-9z" fill="#C7B8B8"/>
<path transform="translate(480,1189)" d="m0 0 10 3 3 1-1 4-4 6-2 1h-10l-6 8-3 1-2 4-5 5-4-2 16-16 7-14zm-25 32m-1 1v3z" fill="#A19393"/>
<path transform="translate(714,1236)" d="m0 0 5 1 4 3v7l-4 5-1 4-1 17-4 3-1-23-3-6-1-1v-5z" fill="#A19393"/>
<path transform="translate(385,1169)" d="m0 0 9 2 2 5-3 8h-6l-4-3-14-2-21-1 2-3 31-1z" fill="#A19393"/>
<path transform="translate(451,1189)" d="m0 0h12l1 2v8l-3 3-10 2-7 8-10 11-4-1 6-8 12-11 2-12z" fill="#A19292"/>
<path transform="translate(451,728)" d="m0 0h18l2 2v17l-2 1h-19l-1-3v-15zm4 3-1 1v11l1 1h9l3-2-1-9-2-2z" fill="#C4B4B5"/>
<path transform="translate(193,1209)" d="m0 0 3 1 1 23 2 8 5 7v2l5 2-1-7 2-2v3h2l1 17-5-3-8-9-7-11-1-6v-17z" fill="#B5A7A7"/>
<path transform="translate(545,672)" d="m0 0h1v57l-5-2-1-5v-41l4 4z" fill="#D1C5C6"/>
<path transform="translate(644,1050)" d="m0 0h1v12l8-1 4 2 2-4 5-2-6 7-2 9-2 2-10 1-1-4-4 1-8-1 1-4 9-4 2-1z" fill="#647BD5"/>
<path transform="translate(124,1080)" d="m0 0h7l4 4 4 9 9 9-1 4-4-2-8-8-4-1h-7l-3-4v-8z" fill="#B2A3A4"/>
<path transform="translate(698,1209)" d="m0 0h19l1 1v18l-20 1-8 3-3 4h-2l-3 3 1-6 8-7 2-1 14-1h6l-1-11-16-2z" fill="#B3A4A4"/>
<path transform="translate(229,1189)" d="m0 0 1 3-2 5-12 12-2 5-1 42h-1v-10h-2l-2-13 1-23 7-8z" fill="#C3B2B3"/>
<path transform="translate(657,1135)" d="m0 0h4l2 6 2 5-3 4v11l3 2-7 7v-3l-2-15-4-7v-7zm4 28m21-18h3l-2 4-6 4h-2l-9 9v-3l9-9z" fill="#A49696"/>
<path transform="translate(546,933)" d="m0 0 6 2 1 4 18 1h10l12 1v1l-39 1 3 6 9 8 5 7-3 1-14-16-10-3-4-4 1-5 4-1z" fill="#A49696"/>
<path transform="translate(439,933)" d="m0 0 7 1 4 5v5l-2 4 8 6 7 7 4 5-1 4-18-18v-2l-9-3-3-3 1-9z" fill="#9F9191"/>
<path transform="translate(658,706)" d="m0 0h2l-2 4-3 4-1 7v9l6-4 5-5h4l-2 5-3 1-2 4-5 5-6 5h-2l-1-2v-21l3-7 5-4 2 1z" fill="#B5A7A7"/>
<path transform="translate(295,1081)" d="m0 0h1v23l-7 8-13 13-6 2-41 41v-3l60-60 4-9h2z" fill="#B2A2A3"/>
<path transform="translate(545,1326)" d="m0 0h18l8 8 8 4 1 2v7l-5 4-9-3-3-5 1-3 2-1-1-4-4-6-16-2z" fill="#A29394"/>
<path transform="translate(565,705)" d="m0 0 7 1 4 4-1 7-3 2-2 17-2 3-1-1-1-14-4-6-2-2v-7z" fill="#B0A2A2"/>
<path transform="translate(261,804)" d="m0 0 1 3-22 22-5 6-4 3h-26v-2l17-1 7-2 28-28z" fill="#B2A2A3"/>
<path transform="translate(315,909)" d="m0 0 6 1 2 2v7l-2 6h-7l-6-2-19-1 1-3 18-1 2-5z" fill="#A09292"/>
<path transform="translate(960,1044)" d="m0 0h1v62h2v34l23-1 19 1 1 2-24 1h-21l-1-35z" fill="#3C61E0"/>
<path transform="translate(510,657)" d="m0 0 4 2 4 6v2l9-1 5 2 2 4v5l-4 3-7 1-3-2-4-11-8-8v-2z" fill="#A39595"/>
<path transform="translate(362,1153)" d="m0 0h6l3 2 1 7-2 5-6 1-6-3-5-3h-14v-2l3-1 11-1 8-4z" fill="#A29494"/>
<path transform="translate(1071,909)" d="m0 0h26v23l-2-1v-5l-4-2v-2l-3-2v-6l-5-1h-5l-2 5-4-3v-2l-5-2z" fill="#2652E5"/>
<path transform="translate(257,697)" d="m0 0 5 1 6 3 12 1 1 4-13 1-4 4-9 1-4-2 1-4 3-7z" fill="#A29494"/>
<path transform="translate(717,1184)" d="m0 0 1 3v8l-1 1-31 1-11 2-8 7-4 2 1-3h2l-1-5 7-6 3-1h38v-5z" fill="#A69898"/>
<path transform="translate(471,934)" d="m0 0h7l4 4-1 8 14 15 6 7h-5l-2-4-15-15-7-2-4-4v-6z" fill="#9D9196"/>
<path transform="translate(342,703)" d="m0 0h27l-3 1v2l-5 3-3 3h-2l-2 4-10 9-6 6h-2l2-5 3-5 11-10 2-3-12-1-2-2z" fill="#B5A6A6"/>
<path transform="translate(347,1307)" d="m0 0 4 2h4l8 7 1 3-7 8-5 6-1 2 8 1v3l-7 1-9-3 2-5 11-11-1-5-8-7z" fill="#B4A5A6"/>
<path transform="translate(429,1188)" d="m0 0h7l3 3v8l-2 3-8 1-10 10h-2l1-4 6-8 1-9z" fill="#A09292"/>
<path transform="translate(1275,977)" d="m0 0h1l1 25h1v54l-1 26-2 1z" fill="#4669E4"/>
<path transform="translate(423,641)" d="m0 0h7l3 3 1 10 6 7-5 1-8-6-8-4-1-4 2-5z" fill="#A39494"/>
<path transform="translate(305,979)" d="m0 0 6 1 4 3v6l-5 5-5-1-9-4-13-1-1-3h11l6 1 4-6z" fill="#A39595"/>
<path transform="translate(501,1028)" d="m0 0 4 1 10 10 11 10v2l7 1h53v2l-58 1-8-6-15-16z" fill="#A39496"/>
<path transform="translate(627,817)" d="m0 0 4 1 7 5h7l5 3 1 2v6l-4 4-7-1-3-4-3-8-7-4z" fill="#A29393"/>
<path transform="translate(223,808)" d="m0 0h3l-2 4-3 4h-2v7l-4 6-6-1-5-5v-5l6-5 7-1z" fill="#B2A3A3"/>
<path transform="translate(721,943)" d="m0 0 2 3v79h-2l-1-18v-63z" fill="#2652E5"/>
<path transform="translate(1596,1071)" d="m0 0 3 1 3 3 7 1 8 1 2 4-2 3-14 1-9-2-1-1-1-8z" fill="#2954E4"/>
<path transform="translate(516,709)" d="m0 0 3 1v71l-3 1z" fill="#AD9E9E"/>
<path transform="translate(352,972)" d="m0 0h2l1 7 1 16-1 20v20l-1 17-2 1-1-5z" fill="#2752E4"/>
<path transform="translate(927,949)" d="m0 0 2 1-1 9-8 34-4 22-3-3 1-11 1-1 2-15 2-10 2-5 2-10 2-4z" fill="#2C56E4"/>
<path transform="translate(148,1103)" d="m0 0 7 6 5 6 4 4-4 2h-19v10h-3l-1 2-1-4v-10l3-3h14l-2-4-5-6z" fill="#B8AAAA"/>
<path transform="translate(233,718)" d="m0 0 5 1 4 5 1 3v8l-5 1-9-4-2-3 1-6z" fill="#A39595"/>
<path transform="translate(259,960)" d="m0 0h19v1l-13 1 3 2-7 1-7 7-7 8-8 9h-5l2-5 9-10 12-13z" fill="#B7A9A9"/>
<path transform="translate(448,1322)" d="m0 0 6 2 2 2v7l-4 4-6 1-7-6-8-1v-2l9-2z" fill="#A19393"/>
<path transform="translate(141,900)" d="m0 0v3l-4 6-3 8-5 3-4-2-3-5 1-7 3-3h9l2-2z" fill="#A29494"/>
<path transform="translate(313,818)" d="m0 0 5 2 5 4 2 5-8 6-6-1-4-4-1-5 4-5z" fill="#A39595"/>
<path transform="translate(556,1017)" d="m0 0h7l3 1 3 5-2 3-31-1 2-5 8-2z" fill="#2652E5"/>
<path transform="translate(428,904)" d="m0 0h5v2h2v2l-14 7-5 5-4 6-2 4-3-1 1-10 1-2h2l1-5 3-1 4-4z" fill="#2954E4"/>
<path transform="translate(119,1050)" d="m0 0h6l3 3 4 10 1 4-6-1-4-1-6-1-3-5 3-8z" fill="#A39595"/>
<path transform="translate(505,1320)" d="m0 0 4 2h-2v2h17l37 1v1l-7 1v1h-53l-2-1 2-4z" fill="#B5A6A6"/>
<path transform="translate(245,1273)" d="m0 0h1l2 13 15 11 11 7-1 2-7-1-14-9-9-6-1-7 2-9z" fill="#A59797"/>
<path transform="translate(350,814)" d="m0 0 2 1 1 4 5 5 1 2v6l-4 3h-6l-5-4v-7z" fill="#A39595"/>
<path transform="translate(345,1200)" d="m0 0h18v3h33v1h-43l-7 1-10 9-5 5-3-1 2-2v-4l8-8z" fill="#BBACAD"/>
<path transform="translate(249,1187)" d="m0 0 6 1 5 3 6 2 2 2-1 1-7 1-3 4h-12l-1-5 3-7z" fill="#B0A1A1"/>
<path transform="translate(160,1028)" d="m0 0h6l9 10 4 3 9 1 4 5 6 5-2 1 1 3-4-2-7-6-9-2-8-7-9-9z" fill="#B7A9A9"/>
<path transform="translate(271 1e3)" d="m0 0 2 1-2 3-2 4-3 1 1 4-7 6-3 5-1 4v16l-5 4-1-3 1-21 3-5 7-7 9-11z" fill="#BEAEAF"/>
<path transform="translate(119,937)" d="m0 0h8l3 1-2 12-2 2h-7l-5-3v-8l2-3z" fill="#B1A3A3"/>
<path transform="translate(553,1147)" d="m0 0 3 1-2 12-3 3h-8l-1-4h-2l-1-4 3-5 3-2z" fill="#A09292"/>
<path transform="translate(604,1072)" d="m0 0 12 1v2l6-1 2 2-4 3-8 2-21-1-2-1v-4l7-1 6 1v-2z" fill="#2652E5"/>
<path transform="translate(121,1019)" d="m0 0 5 3 2 4 1 11-12-2-4-5 1-5z" fill="#A19393"/>
<path transform="translate(284,681)" d="m0 0h7l5 5 5 2-3 1v2h-3l-2 4h-10l-2-3 1-9z" fill="#A39595"/>
<path transform="translate(510,1136)" d="m0 0h11l15 1 2 4-1 2h-33l2-2 2 1v-5z" fill="#2652E5"/>
<path transform="translate(294,1030)" d="m0 0h1l2 10 4 5v5l-6 5h-5l-4-6 1-5 5-5z" fill="#A29494"/>
<path transform="translate(462,636)" d="m0 0 5 3 3 8v5l-4 1-10-3-3-5 4-6z" fill="#A39595"/>
<path transform="translate(334,863)" d="m0 0 6 1 5 5-1 7-2 3h-6l-5-4-1-4-3-1 1-2 4-2z" fill="#B1A2A3"/>
<path transform="translate(497,1245)" d="m0 0h13l-1 10-2 4-6 1-4-1-2-6 1-7z" fill="#A39596"/>
<path transform="translate(258,1160)" d="m0 0 4 1-2 4-30 30h-2l2-7 21-21z" fill="#B7A9A9"/>
<path transform="translate(319,662)" d="m0 0 9 1 5 5v3h-3l-2 4-1 1h-9l-3-4 1-7z" fill="#A19393"/>
<path transform="translate(665,1239)" d="m0 0 2 4h3v44l-3 1-1-8-1-23z" fill="#C8BABB"/>
<path transform="translate(178,1203)" d="m0 0h2l7 10-1 6-7 3-4-1-4-7 2-5 4-3z" fill="#A39595"/>
<path transform="translate(346,1175)" d="m0 0 4 1-1 1 6 1v1l-9 1-8 7-9 10h-19v-2h2v-2l14-1 15-15z" fill="#BBADAD"/>
<path transform="translate(1475,1139)" d="m0 0 67 1 31 1v1h-107l1-2z" fill="#2652E5"/>
<path transform="translate(1452,910)" d="m0 0h4v71h-1l-1-35-2 2z" fill="#BEAEAE"/>
<path transform="translate(532,737)" d="m0 0 7 2 2 4v9h-12l-2-2v-10z" fill="#A39595"/>
<path transform="translate(329,1099)" d="m0 0 5 5 2 4-1 6-4 3-6-1-4-5 1-5 4-6z" fill="#A29494"/>
<path transform="translate(234,952)" d="m0 0 1 2-3 4 2 2-19 19h-15l-1-2 13-3 15-15 5-4z" fill="#B4A5A5"/>
<path transform="translate(1048,910)" d="m0 0h2l-2 5-2 3-3 21v14l1 6v5l-3 1-1-2v-41l2-7 2-1 1-3z" fill="#2D57E4"/>
<path transform="translate(287,819)" d="m0 0 6 1 4 2v9l-3 3h-7l-5-5v-5z" fill="#A29494"/>
<path transform="translate(449,1245)" d="m0 0h10l1 3-2 10-3 2-6-1-4-4v-6z" fill="#A29494"/>
<path transform="translate(456,1221)" d="m0 0 3 1-6 7-24 24h-11l-1-2 12-4 23-23h2z" fill="#B9ABAB"/>
<path transform="translate(271,1125)" d="m0 0 4 1-45 45h-2l1-4z" fill="#B8ABAB"/>
<path transform="translate(177,991)" d="m0 0 7 2 3 4-1 5-5 5-4 1-5-5v-7l2-4z" fill="#B2A3A3"/>
<path transform="translate(267,1061)" d="m0 0h1v5l-15 15-9 6h-16l-2-1v-2l16-2 6-3 3-3h2l2-4 8-7h3z" fill="#AB9D9E"/>
<path transform="translate(312,1318)" d="m0 0 7 1 4 4-1 7-3 2h-8l-4-4-1-4 4-5z" fill="#A29494"/>
<path transform="translate(228,1263)" d="m0 0 5 3 3 5-1 5-4 3-7-1-4-4 1-6 5-4z" fill="#A09292"/>
<path transform="translate(309,1028)" d="m0 0 5 2 3 4 1 6-3 3-5 2-4-1-3-4 1-7z" fill="#A19393"/>
<path transform="translate(244,1010)" d="m0 0 1 4-4 6-1 9v14l-2-2-4 1v-22l4-6z" fill="#C4B4B5"/>
<path transform="translate(529,763)" d="m0 0h9l2 3v11h-10l-4-4v-6z" fill="#A29494"/>
<path transform="translate(961,1017)" d="m0 0h2l1 29-1 32v27l-2 1z" fill="#2652E5"/>
<path transform="translate(509,793)" d="m0 0h2v2l-10 1h-10l11 1v1h-35v-1l-6-1h-30l-4-2h76z" fill="#BFAEAF"/>
<path transform="translate(475,1245)" d="m0 0h7v2h2v8l-3 4h-9l-2-3-1-7z" fill="#A19393"/>
<path transform="translate(640,1152)" d="m0 0h7l3 3v8l-6 3-1 3h-2l-1-5-4-2-1-4 2-5z" fill="#A29494"/>
<path transform="translate(163,943)" d="m0 0h26v1l-10 1-1 1 13 1v1h-24l-7 2-9 10-1-2-2-1 8-10 4-3z" fill="#D1C5C6"/>
<path transform="translate(262,819)" d="m0 0 4 1 5 2v8l-2 4h-7l-6-4v-5z" fill="#A09292"/>
<path transform="translate(381,757)" d="m0 0h3l1 5h2v42h-1l-1-10h-1l-1-6v-25h-2l-3 3h-5l6-7z" fill="#B6A7A7"/>
<path transform="translate(484,1335)" d="m0 0 5 2 4 6-3 7h-8l-5-5 1-5z" fill="#A39595"/>
<path transform="translate(565,1279)" d="m0 0 8 2 2 2v7l-4 3h-4v5l-2-1-3-7-2-5z" fill="#A29494"/>
<path transform="translate(1408,909)" d="m0 0h5v39l-2-1-2-9v-3-12l-3-7-4-6z" fill="#2954E5"/>
<path transform="translate(360,1210)" d="m0 0 4 2-3 3-3-1 1 6 4 1h3l-2 2 1 2-10 2-4 5-5 5-2-2 1-4 7-9 2-7 3-4z" fill="#B2A3A3"/>
<path transform="translate(376,648)" d="m0 0h7l3 3 1 7-6 3-6 1-3-3v-8z" fill="#A09292"/>
<path transform="translate(631,1096)" d="m0 0h21l2 5 9 1 1 2-13 2-6-2-1-2h-2v-2l-18-2v-1z" fill="#B1A2A2"/>
<path transform="translate(389,1287)" d="m0 0 4 1 15 16 4 3 7 1-4 2 22 1v1h-25l-6-3-12-13-5-5z" fill="#BAACAC"/>
<path transform="translate(198,880)" d="m0 0h6l5 4v2l2 1h-3l1 4-3 4-8-1v-2h-2v-10z" fill="#B3A5A5"/>
<path transform="translate(1426,935)" d="m0 0 5 1v15l-1 13-1 48h-1l-1-63-2-1-1 3 1-15z" fill="#C3B4B5"/>
<path transform="translate(617,660)" d="m0 0 10 3-2 5h-2l-1 3-8 3h-5l-3-8 7-3zm0 3-3 3v2l5-1v-4z" fill="#B4A6A6"/>
<path transform="translate(516,1259)" d="m0 0h4l-2 4-22 22-1 2-4-2-3-3v-4l4 2 4-1z" fill="#AD9E9E"/>
<path transform="translate(609,1116)" d="m0 0h11l5 1 23 1-1 2h-60v-3z" fill="#BEB0B0"/>
<path transform="translate(714,1142)" d="m0 0 6 1-2 4h-9l-22 22-4-1 2-4 5-5 11-10 5-3-1-2 8-1z" fill="#AC9E9F"/>
<path transform="translate(1522,995)" d="m0 0 3 1-2 28v9l1 8-3 4h-3l-1-3 2-3 1-29v-14z" fill="#B2A3A4"/>
<path transform="translate(434,1308)" d="m0 0h21l8 2 3 2v5l-5-2-3-2-5-1-39-1 1-2z" fill="#A89A9B"/>
<path transform="translate(294,1277)" d="m0 0 5 1 8 7 5 7 1 3v14h-1l-1-7-3-1-3-10-10-10-2-1z" fill="#B5A7A7"/>
<path transform="translate(1077,1114)" d="m0 0 6 1 4 4 1 7-1 3h-7l-4-4-1-8z" fill="#5875DE"/>
<path transform="translate(152,1165)" d="m0 0h2l7 15 4-2 6-6h2l2-4h3l-1 4-14 14h-3l-5-9-4-9z" fill="#A99C9C"/>
<path transform="translate(539,1235)" d="m0 0 5 1-2 4-16 16-5 4-4-2 11-11 7-8z" fill="#B8AAAA"/>
<path transform="translate(294,743)" d="m0 0h7l5 4-1 6-2 2-8 1-3-1-1-10zm2 5 1 4h2l-1-4z" fill="#C7B7B8"/>
<path transform="translate(680,679)" d="m0 0 4 2-1 4-8 7-14 14h-3v2h-2l1-4 18-18 1-4-2-2 6 1z" fill="#B2A4A4"/>
<path transform="translate(634,1211)" d="m0 0h1l1 23 4 4 1 7-4-2-2-2h-2v2h-2l2-4-4 1-2 1 2-4 2-6v-19l1 2h2z" fill="#B3A5A5"/>
<path transform="translate(146 1e3)" d="m0 0 3 1 9 11 6 6 1 10-4 1-3-9-13-16z" fill="#C0B0B1"/>
<path transform="translate(1073,1161)" d="m0 0 2 2v38l-1 2-5-1 1-8z" fill="#E1DADA"/>
<path transform="translate(216,937)" d="m0 0h2l-2 7-19 19h-5l3-5 8-9 8-7z" fill="#C3B3B4"/>
<path transform="translate(1413,1051)" d="m0 0h1l2 17 4 6 9 7 3 2 1 4-3 1-4 4v-8l-1-4-4-2-7-4-3-4 1-13z" fill="#365DE2"/>
<path transform="translate(303,901)" d="m0 0 13 1 1 3h-48l1-2 4-1z" fill="#B0A0A0"/>
<path transform="translate(655,1111)" d="m0 0 7 1 2 2-2 10-4 1-4-1-3-3-4-2 5-1 2-6z" fill="#A59797"/>
<path transform="translate(304,723)" d="m0 0h6l2 3v8l-2 2h-8l-2-1 1-6-2-1z" fill="#A39595"/>
<path transform="translate(553,972)" d="m0 0 2 1 2 2 1-2 6-1 1 4-1 4-4 4h-7l-3-7 1-4z" fill="#5976DD"/>
<path transform="translate(164,1007)" d="m0 0 14 2 10 7-1 2 3 4-4 1-5-5-6-3-7-2-5-5z" fill="#C3B3B4"/>
<path transform="translate(380,688)" d="m0 0 4 1 7 8 8 8 1 4-4 1-16-16-1-4z" fill="#B7A8A9"/>
<path transform="translate(430,985)" d="m0 0 5 1 7 4 17 17v5l-7-6-13-13-9-6z" fill="#A49595"/>
<path transform="translate(1552,916)" d="m0 0 2 1 1 9v35l-1 5-2-4z" fill="#BAABAB"/>
<path transform="translate(428,1044)" d="m0 0 7 6 3 7-3 9-8 7-2 3-4-4 3-2 6-5 3-6-1-5-4-7z" fill="#B2A3A4"/>
<path transform="translate(643,1077)" d="m0 0h1v6l19 1v2h-46v-1l18-3 6-3h2z" fill="#8087BB"/>
<path transform="translate(432,967)" d="m0 0h8l6 3 10 9 7 7 5 7v2h-2l-7-8-10-10-13-7z" fill="#AFA2A2"/>
<path transform="translate(246,1097)" d="m0 0 4 2 3 4-1 7-2 1h-11l1-3v-3l4-3z" fill="#A39494"/>
<path transform="translate(197,1073)" d="m0 0 3 1 3-1 5 6 6 3 12 2v2l2 1h-17l-6-4-8-8z" fill="#B4A6A6"/>
<path transform="translate(526,1027)" d="m0 0 4 2 5 6 50 1v2h-51l-8-9z" fill="#B0A1A1"/>
<path transform="translate(946,852)" d="m0 0 4 1-1 2-13 3-8 4-7 3-3 3h-3v2l-5 1 6-7 14-8 9-3z" fill="#2A55E5"/>
<path transform="translate(437,759)" d="m0 0 25 2v4h-27v-4h2z" fill="#AFA0A0"/>
<path transform="translate(360,1289)" d="m0 0 4 4 5 6 8 7 6 6-1 2-2-2-6-2-11-10-4-6z" fill="#B5A7A8"/>
<path transform="translate(148,917)" d="m0 0 3 3-4 4-8 7-8 8-6-2 4-2v-2l8-7z" fill="#C8B9B9"/>
<path transform="translate(243,734)" d="m0 0 1 2h2l-1 5-12 12-7 4-2-2 1-2h2v-2h2v-2l8-7 3-5z" fill="#C3B4B4"/>
<path transform="translate(288,1180)" d="m0 0 1 2-1 2 2 1-7 7-3 4-3 1h-10l-2-5h11l6-7z" fill="#C9BBBC"/>
<path transform="translate(1473,946)" d="m0 0 3 3v35l-2 12h-1z" fill="#B5A5A5"/>
<path transform="translate(533,1193)" d="m0 0 3 1-2 4-14 14-10 8h-2l2-4z" fill="#AE9E9E"/>
<path transform="translate(341,746)" d="m0 0 2 2-1 4-3 6v11l-2-1-3 1-2-6v-6l4-6z" fill="#C6B7B8"/>
<path transform="translate(682,1168)" d="m0 0 4 2-3 4 20 1v1h-13v2l4 1h-21l2-4z" fill="#A59797"/>
<path transform="translate(313,1013)" d="m0 0h3l-1 8-2 3v5l-6 1v-7l-3-2-6-1v-2l12-2z" fill="#B3A5A5"/>
<path transform="translate(1099,851)" d="m0 0h45v1l-9 1-4 1h-6l-4-1-8 2h-13l-2-2z" fill="#2652E5"/>
<path transform="translate(571,1132)" d="m0 0h8l3 1-1 3-12 3-7-2-2 1-7-2v-2z" fill="#5774DE"/>
<path transform="translate(159,814)" d="m0 0 7 1 2 4-3 3-1 5h-6l-3-2 2-9z" fill="#9F9191"/>
<path transform="translate(197,766)" d="m0 0 4 2-17 17-6 8-2-4 6-8z" fill="#BFB0B0"/>
<path transform="translate(474,968)" d="m0 0h18l7 2-4 2h-8l1 3-4-1h-2l-5 1-2-1v-2l-3-1v-2z" fill="#2753E5"/>
<path transform="translate(363,1200)" d="m0 0h38l-1 3h-37z" fill="#9E9090"/>
<path transform="translate(351,778)" d="m0 0 4 3 3 2-1 4-5 1-4-1-8 8h-3l1-4 7-8h2l2-3z" fill="#A69797"/>
<path transform="translate(181,835)" d="m0 0h41v1h-17v2h24v1h-42l3-2-9-1z" fill="#CFC2C3"/>
<path transform="translate(426,792)" d="m0 0 1 3h35l11 1v1l-6 1h-41z" fill="#AD9E9E"/>
<path transform="translate(1040,1039)" d="m0 0h1l1 47h1v23h-2l-1-4z" fill="#4F6CD8"/>
<path transform="translate(417,761)" d="m0 0h3l3 11 3 3 10 2 1 2-3 1h-9l-7-6-1-2z" fill="#B5A6A6"/>
<path transform="translate(1460,936)" d="m0 0 3 1 1 32h-5z" fill="#BCAAAB"/>
<path transform="translate(257,697)" d="m0 0 5 1 6 3 12 1 1 4-13 1-4 3 1-5-2-1v-4h-5v2h-4l2-4z" fill="#B0A1A1"/>
<path transform="translate(251,708)" d="m0 0 3 4h-4l3 6 8 8-1 2-2-1v2h-2l-6-8-7-6 1-3z" fill="#B4A6A6"/>
<path transform="translate(336,1158)" d="m0 0h8l-2 2h-3v3l-9 6-6 5h-3-3l3-3h2l2-4 9-8z" fill="#C5B6B7"/>
<path transform="translate(632,795)" d="m0 0 5 1 5 5 7 6h4v3h-2v2l3 1-2 2-10-8-10-9z" fill="#B9ACAC"/>
<path transform="translate(399,1328)" d="m0 0h39v1h-7v2h-34z" fill="#AFA0A0"/>
<path transform="translate(549,1226)" d="m0 0 5 2 1 4-5 4h-10l1-8z" fill="#A59797"/>
<path transform="translate(331,1311)" d="m0 0 4 2 3 4-2 5-7 6-7 2 1-7h5l2-3h2l-1-5v-3z" fill="#B6A7A8"/>
<path transform="translate(336,793)" d="m0 0 1 2 2 1-7 7-2 3h-14l2-2-3-2 12-2 4-1 2-4z" fill="#CCC2C2"/>
<path transform="translate(666,986)" d="m0 0h1l4 16 3 3 1 3h-2v2h-2l-1 2h-4z" fill="#355FEF"/>
<path transform="translate(193,1209)" d="m0 0 3 1v28h-3l-1-4v-17z" fill="#A79999"/>
<path transform="translate(305,1112)" d="m0 0v3l-2 1zm-3 4m-1 1 2 4-5 6h-2l-1 3-5 5-3 2-1-2-2-1z" fill="#BDB1B1"/>
<path transform="translate(1458,916)" d="m0 0h2v46h-1l-1-9-1-26h-1v-10z" fill="#FDFDFD"/>
<path transform="translate(400,1273)" d="m0 0 4 2 10 10h5l3 3-3 1-4-1-3 3-9-10-2-4h-2z" fill="#B8AAAA"/>
<path transform="translate(479,1222)" d="m0 0 4 2-20 20h-2v2l-4-2 7-6 1-2h2v-2h2v-2l5-5z" fill="#BAACAC"/>
<path transform="translate(682,1145)" d="m0 0h3l-2 4-6 4h-2l-9 9v-3l9-9zm-25 10 3 1 3 6 2 1-7 7v-3z" fill="#B4A6A6"/>
<path transform="translate(566,724)" d="m0 0h1l1 14 2-2v8l-4 7-4 4-3-1 1-4 4-6z" fill="#C0B2B3"/>
<path transform="translate(308,1082)" d="m0 0h1l1 20 2-1 1 3-2 9-7 8h-2l1-5 4-6z" fill="#AFA0A1"/>
<path transform="translate(1041,1030)" d="m0 0 2 4v34l1 10-1 8-2 1-1-50z" fill="#2652E5"/>
<path transform="translate(702,1298)" d="m0 0 2 2-4 4-14 7-4-1v-6l1 2 6-2z" fill="#A59797"/>
<path transform="translate(559,1241)" d="m0 0h3l-1 4-17 17-3-3z" fill="#B3A4A4"/>
<path transform="translate(600,1104)" d="m0 0h11l11 1-1 3h-27l-1-3z" fill="#FDFDFD"/>
<path transform="translate(309,1069)" d="m0 0 3 2v30l-3 2z" fill="#9E9090"/>
<path transform="translate(449,1202)" d="m0 0h5l-14 14-6 7-4-1 6-8z" fill="#AEA1A1"/>
<path transform="translate(1071,909)" d="m0 0h23v1h-7v2l-9 1-2 5-4-3v-2l-5-2z" fill="#2F58E4"/>
<path transform="translate(301 1e3)" d="m0 0h14v12l-3 1-4-8v-2h-15v-1l8-1z" fill="#BAABAC"/>
<path transform="translate(350,1327)" d="m0 0 2 3-1 5 8 1v3l-7 1-9-3 2-5z" fill="#B8A9AA"/>
<path transform="translate(317,1060)" d="m0 0 3 3 2 6v6l-5-5-1-3-2 4-1 12h-1l-1-12-2-4z" fill="#A49696"/>
<path transform="translate(1041,980)" d="m0 0h2l1 22-1 19-1 7h-2z" fill="#2652E5"/>
<path transform="translate(432,1218)" d="m0 0v3l-1 1 2 2-7 7h-2v2l-7 4h-6l1-2h3v-2l6-2 1-3h2l2-4z" fill="#C8BEBE"/>
<path transform="translate(769,1012)" d="m0 0 2 3 2 10 2 4 2 16 1 7-1 3h-1l-7-36z" fill="#2D57E4"/>
<path transform="translate(446,947)" d="m0 0 7 4 10 10 4 5-1 4-18-18v-2h-2z" fill="#A59696"/>
<path transform="translate(176,789)" d="m0 0 2 1-3 7-3 6 3 1-2 2h-9l2-5 9-11z" fill="#B5A6A6"/>
<path transform="translate(601,792)" d="m0 0 2 1v27l-11-3-3-2h4v-2l7 1z" fill="#AE9F9F"/>
<path transform="translate(1215,851)" d="m0 0h37l18 3 3 2-17-1-2-1-39-2z" fill="#2853E4"/>
<path transform="translate(267,1061)" d="m0 0h1v5l-15 15-4 2 1-4 6-8 7-6h3z" fill="#AB9C9C"/>
<path transform="translate(149,1039)" d="m0 0 4 2 12 12-2 4-7-6-9-10z" fill="#C7B8B9"/>
<path transform="translate(1425,948)" d="m0 0 3 1v31l-3-2z" fill="#AD9E9E"/>
<path transform="translate(368,773)" d="m0 0h2v16l-9 10-1-2-3-1 8-8 2-4z" fill="#AB9C9D"/>
<path transform="translate(1042,965)" d="m0 0 2 2 1 5-3 8-1 44h-1v-54z" fill="#3F64E3"/>
<path transform="translate(495,938)" d="m0 0 7 1h7v3h-7l4 6 12 12-2 2-10-11-5-5-7-6z" fill="#A7999C"/>
<path transform="translate(1614,937)" d="m0 0 4 1v5l-2 1-1-3h-2l-1 3-1 55h-1v-57l1-3z" fill="#5875DE"/>
<path transform="translate(337,766)" d="m0 0h1v5l-11 12-5 5-2-1 5-8 7-8 3-3h2z" fill="#B6A7A7"/>
<path transform="translate(216,970)" d="m0 0 4 1v3l-5 5h-15l-1-2 13-3z" fill="#B7A7A7"/>
<path transform="translate(197,936)" d="m0 0 1 3 2 1-7 7h-15l-2-2 13-2z" fill="#C0B0B1"/>
<path transform="translate(1527,1108)" d="m0 0h12l18 1 17 2v1h-15l-27-1-7-1z" fill="#5875DE"/>
<path transform="translate(556,650)" d="m0 0 11 1 3 3v6l-2 2-2 4-1-9-11-3 2-1z" fill="#B4A6A6"/>
<path transform="translate(168,869)" d="m0 0 3 1-2 4-8 8-6-1 1-4-4-1 9-2z" fill="#B9ABAB"/>
<path transform="translate(627,663)" d="m0 0 11 2 6 2-2 4h-2v2l-5-2-9-4z" fill="#C3B2B3"/>
<path transform="translate(587,655)" d="m0 0h4l2 6-4 7-6-1 1-7 2-2z" fill="#A29494"/>
<path transform="translate(342,1131)" d="m0 0 6 2 5 9v5l-6-1v-5l-3-3-3-6z" fill="#B7A8A8"/>
<path transform="translate(381,757)" d="m0 0h3l1 5h2v9h-2l-1 6h-1v-14h-2l-3 3h-5l6-7z" fill="#C3B4B4"/>
<path transform="translate(180,1189)" d="m0 0h4l-1 5-3 4-3 9-3 2 1-3v-7l-1-4z" fill="#AB9C9C"/>
<path transform="translate(278,960)" d="m0 0h23v1l-8 1-1 1-12 1-15-1-1-2z" fill="#AB9D9D"/>
<path transform="translate(541,664)" d="m0 0h4v23l-3-2v-2l-1-1z" fill="#AE9F9F"/>
<path transform="translate(470,649)" d="m0 0 11 11-1 5-4-2-9-9 1-2h2z" fill="#B5A7A7"/>
<path transform="translate(124,1080)" d="m0 0h7l3 3v6h-5l-3-1-1 2h-2v-9z" fill="#A39494"/>
<path transform="translate(562,797)" d="m0 0 4 1 3 4 1 6h-7l-9-2 2-3h8l-2-2z" fill="#AD9F9F"/>
<path transform="translate(261,935)" d="m0 0 23 1v1l6 1v1h-28z" fill="#B3A4A5"/>
<path transform="translate(549,1202)" d="m0 0 4 2 1-2v20l-5-2z" fill="#C6B7B8"/>
<path transform="translate(461,1063)" d="m0 0 1 4-6 11-5 5-4-1 11-15z" fill="#A59797"/>
<path transform="translate(167,816)" d="m0 0 5 1v2l4 2-1 2-5 1-4 5-7-1v-1l5-1 1-5 2-3z" fill="#B6A9A9"/>
<path transform="translate(1467,1099)" d="m0 0 3 1-1 5h-2l-1 4-4 3-5-1 2-4 6-7z" fill="#5875DE"/>
<path transform="translate(473,1204)" d="m0 0 1 3-5 6h-2l-2 4-5 5-4-2 8-8 8-7zm-18 17m-1 1v3z" fill="#A89A9A"/>
<path transform="translate(675,1193)" d="m0 0h7l-3 2-2-1 1 4-6 3-7 7h-2l1-3h2l-1-5 7-6z" fill="#AC9D9D"/>
<path transform="translate(277,1143)" d="m0 0 3 1-6 7-11 11-4-2 2-3 5-1 2-4z" fill="#AE9E9E"/>
<path transform="translate(303,1136)" d="m0 0h2v2h-4v2l6-1 2 4-2 4-4 1-3-1 2-6-4 1-1-3 2-2z" fill="#A09292"/>
<path transform="translate(1428,952)" d="m0 0h2l-1 60h-1l-1-59z" fill="#CDC0C1"/>
<path transform="translate(116,938)" d="m0 0h4v2l2 1 1 3-5 6-4-1v-8z" fill="#A09292"/>
<path transform="translate(241,724)" d="m0 0 2 3v8l-5 1-6-2 3-1-1-3 4-3h2z" fill="#B0A0A1"/>
<path transform="translate(1520,1021)" d="m0 0h2l2 20-3 4h-3l-1-3 2-3z" fill="#A99B9C"/>
<path transform="translate(1426 1e3)" d="m0 0h2l1 11-3 5-8 7-4 2 2-4 7-7 1-5h1z" fill="#B4A6A6"/>
<path transform="translate(646,939)" d="m0 0h5l2 4v14h-1v-13h-2l1 4-1 29h-1l-1-35h-3z" fill="#B5A4A5"/>
<path transform="translate(380,1133)" d="m0 0 8 2-4 12-3 1-1-2z" fill="#A59697"/>
<path transform="translate(271 1e3)" d="m0 0 2 1-2 3-2 4-3 1 1 4-8 6-2-3 11-12z" fill="#BAACAC"/>
<path transform="translate(1580,925)" d="m0 0 3 3v22l-3 1z" fill="#A39595"/>
<path transform="translate(303,722)" d="m0 0h5l-4 2-4 4 1 4-2 2v-2l-14-1 1-3 13-1 2-4z" fill="#B6A8A8"/>
<path transform="translate(541,727)" d="m0 0 4 1 9 9v4l-5-2-8-8z" fill="#B3A4A4"/>
<path transform="translate(559,1193)" d="m0 0 4 1v3l-7 3-3 4h-2v8h-1v-13l6-5z" fill="#B3A4A4"/>
<path transform="translate(346,1175)" d="m0 0 4 1-1 1 6 1v1l-9 1-7 6-4-1 2-4 6-5z" fill="#B1A3A3"/>
<path transform="translate(600,787)" d="m0 0h4v32h-1l-1-26-1 21h-1z" fill="#baa"/>
<path transform="translate(295,1081)" d="m0 0h1v23l-4 5h-2l-1-4 4-9h2z" fill="#B6A7A8"/>
<path transform="translate(291,1017)" d="m0 0h12v1h-5v2h6v1l-7 1-1 8h-2l-1 3z" fill="#BDAEAF"/>
<path transform="translate(584,798)" d="m0 0 3 4 1 9 5 1v3h-7l-2-1z" fill="#A49696"/>
<path transform="translate(1028,786)" d="m0 0h6l3 2v3l-3 2v3h-5l-2-7z" fill="#C3B4B5"/>
<path transform="translate(416,1211)" d="m0 0 2 3-6 6h-11l-1-3 11-2z" fill="#B6A8A8"/>
<path transform="translate(617,808)" d="m0 0h2l5 5 5 4h-2v3l-5-2-10-8 2-1 3 1z" fill="#B8AAAA"/>
<path transform="translate(308,1289)" d="m0 0 3 1 2 5v14h-1l-1-7-3-1-2-11z" fill="#AE9F9F"/>
<path transform="translate(415,1072)" d="m0 0h7l5 5 1 7h-7l3-2-4-4v-2h-2v-2h-3z" fill="#647BD6"/>
<path transform="translate(909,871)" d="m0 0v3l-2 5-5 4-1 2h-2v5l-5 6-2-1 8-14z" fill="#2B56E4"/>
<path transform="translate(282,808)" d="m0 0v3l-7 7-6 4-4-2 4-1v-2l8-7z" fill="#B5A6A6"/>
<path transform="translate(406,1305)" d="m0 0 4 1 9 2-4 2 22 1v1h-25l-6-3z" fill="#B2A3A3"/>
<path transform="translate(342,703)" d="m0 0h21v1l-8 1v3l-13-1-2-2z" fill="#BDABAC"/>
<path transform="translate(539,1235)" d="m0 0 5 1-2 4-6 5-7 1 6-7z" fill="#BEAEAF"/>
<path transform="translate(207,746)" d="m0 0 4 1 2 4v3l-2 3-5-2-2-7z" fill="#A19393"/>
<path transform="translate(634,1211)" d="m0 0h1v20l-2 1-1-2-1-18 1 2h2z" fill="#B1A4A4"/>
<path transform="translate(422,958)" d="m0 0h1v11l4-1h10v3l-16 1v-11z" fill="#9F9191"/>
<path transform="translate(178,856)" d="m0 0 1 2h2l1 4-10 9-3-3 7-8z" fill="#C3B4B4"/>
<path transform="translate(642,668)" d="m0 0 5 1-2 4-7 7-3-1 1-4 1-2h3z" fill="#B6A8A8"/>
<path transform="translate(1589,1037)" d="m0 0h1l1 17 1 5v13l-1 10h-1l-1-23z" fill="#6C80D5"/>
<path transform="translate(450,977)" d="m0 0 5 1 8 8 5 7v2h-2l-7-8-9-9z" fill="#8D8AA8"/>
<path transform="translate(172,968)" d="m0 0h8l3 2v2h-20v-2z" fill="#B3A3A3"/>
<path transform="translate(274,902)" d="m0 0h19l-2 3h-22l1-2z" fill="#C0AFAF"/>
<path transform="translate(749,855)" d="m0 0 9 3 11 7 2 3-6-2-12-6-4-3z" fill="#2B55E5"/>
<path transform="translate(436,777)" d="m0 0h29v1l-23 1 15 1v1h-21l-2-2z" fill="#D3C7C7"/>
<path transform="translate(595,1231)" d="m0 0v3l-2 5-8 8-4-2z" fill="#A89999"/>
<path transform="translate(145,1150)" d="m0 0 5 1 2 9 2 5-4 1-6-15z" fill="#B5A7A7"/>
<path transform="translate(351,1223)" d="m0 0 3 3-2 4-4 6-2 1-2-2 1-4z" fill="#B9A9A9"/>
<path transform="translate(526,1027)" d="m0 0 4 2 5 6 4 1 26 1v1h-31l-8-9z" fill="#697DD1"/>
<path transform="translate(451,761)" d="m0 0h11v4h-27v-1l17-1z" fill="#BCAAAB"/>
<path transform="translate(377,1311)" d="m0 0 4 1 6 3 1 3-3 5-4-1-1-7z" fill="#BDAEAF"/>
<path transform="translate(580,1203)" d="m0 0 6 1-5 5-4 3v-2l-8 7-3 2 2-4 7-7h2l2-4z" fill="#C2B7B7"/>
<path transform="translate(644,1165)" d="m0 0h1v16l-3 2-1-2v-12h2z" fill="#B2A2A3"/>
<path transform="translate(421,1028)" d="m0 0h2l1 11 4 4 1 6-7-6-2-4z" fill="#B0A0A1"/>
<path transform="translate(397,1328)" d="m0 0 2 1-1 1 3 2-5 2-2 5 3 2h-6l1-3-6 3 2-4z" fill="#C9BBBC"/>
<path transform="translate(480,1016)" d="m0 0 4 1 7 5-2 2h-8l-2-3z" fill="#2652E5"/>
<path transform="translate(500,1277)" d="m0 0 2 2-7 8-4-2-3-3v-4l4 2h5z" fill="#A59797"/>
<path transform="translate(417,1260)" d="m0 0 5 2v3l-10 4-1-4 4-4z" fill="#AFA0A0"/>
<path transform="translate(498,1230)" d="m0 0h2l-2 4-14 14-2-1 1-4 5-3z" fill="#AE9F9F"/>
<path transform="translate(1421,1077)" d="m0 0 5 2 6 4 1 4-3 1-4 4v-8l-1-4-4-2z" fill="#2C56E3"/>
<path transform="translate(528,1052)" d="m0 0h24l-2 2-8 1h-13z" fill="#AD9D9E"/>
<path transform="translate(186,777)" d="m0 0 1 2 2 1-10 11-2 2-1-5z" fill="#CCC0C1"/>
<path transform="translate(656,756)" d="m0 0 3 2-13 13h-3l2-4z" fill="#B1A2A2"/>
<path transform="translate(545,1326)" d="m0 0h18l6 7-3 3-5-7-16-2z" fill="#A69797"/>
<path transform="translate(244,1266)" d="m0 0 3 1v12h-1l-1-4-2 8h-1v-15h2z" fill="#BBABAC"/>
<path transform="translate(245,1096)" d="m0 0 1 3-1 4-9 5 1-8z" fill="#AFA0A1"/>
<path transform="translate(466,1083)" d="m0 0h10v2l2 1h-21l-13-1v-1z" fill="#5975DD"/>
<path transform="translate(123,987)" d="m0 0h1l3 9v3l-1 4-6-8v-6h2z" fill="#C6B6B7"/>
<path transform="translate(282,985)" d="m0 0h11l8 1 2 5-7-2-13-1z" fill="#AD9D9E"/>
<path transform="translate(356,1157)" d="m0 0 1 4-4 1h-14v-2l3-1 11-1z" fill="#B1A2A2"/>
<path transform="translate(1453,944)" d="m0 0 2 3v17h-2l-1 4v-20z" fill="#AD9E9E"/>
<path transform="translate(1510,920)" d="m0 0 2 1-10 7-5 4-1 2-5 1-1 3 1-5 7-6z" fill="#AD9F9F"/>
<path transform="translate(207,918)" d="m0 0 6 1 2 3-2 1-6-1-3 1v9l-3 1v-9l4-5z" fill="#C7B8B9"/>
<path transform="translate(132,911)" d="m0 0 3 4-5 5-5-2-1-3z" fill="#B2A3A3"/>
<path transform="translate(228,1263)" d="m0 0 5 3 3 5-1 5-1-4h-2l-1-2-5-2v-2l-2-1z" fill="#B3A4A4"/>
<path transform="translate(346,1140)" d="m0 0 2 1-1 5h-19l1-2 14-2z" fill="#C2B5B5"/>
<path transform="translate(648,1061)" d="m0 0h5l3 3-6 4-4 4v-8h2z" fill="#AB9C9F"/>
<path transform="translate(368,1303)" d="m0 0h6l9 9-1 2-2-2-6-2z" fill="#B4A5A5"/>
<path transform="translate(335,1207)" d="m0 0 2 1 1 1-1 4-6 6-3-1 2-2v-4z" fill="#B5A6A6"/>
<path transform="translate(152,1165)" d="m0 0h2l6 13-1 3v-2h-3l-5-11z" fill="#A59696"/>
<path transform="translate(192,1064)" d="m0 0 7 5 3 4-2 3-6-4-3-4-1-3z" fill="#C0AFB0"/>
<path transform="translate(430,985)" d="m0 0 5 1 7 4 4 4-5 1-8-6-3-2z" fill="#A79999"/>
<path transform="translate(656,798)" d="m0 0 1 2h2l-1 6-3 7-4-1v-2h2l1-7z" fill="#AD9E9E"/>
<path transform="translate(491,795)" d="m0 0h18l1 3-32-1v-1z" fill="#AE9E9F"/>
<path transform="translate(381,756)" d="m0 0m-1 1m-1 1m-1 1m-1 1m-1 1m-1 1m-1 1m-1 1m-1 1 4 2-4 5-1 13h-1v-12h-2l2-6z" fill="#B9A9A9"/>
<path transform="translate(400,761)" d="m0 0 3 1 2 14-5 1z" fill="#B0A1A1"/>
<path transform="translate(417,761)" d="m0 0h3l3 12h-2v2l-3-1-1-2z" fill="#B2A3A3"/>
<path transform="translate(133,1065)" d="m0 0 7 6 1 4-3 1-8-8z" fill="#AF9F9F"/>
<path transform="translate(336,793)" d="m0 0 1 2 2 1-7 7-4 2-1-5 4-1 2-4z" fill="#BDAFB0"/>
<path transform="translate(550,764)" d="m0 0h4v23h-1l-1-7-1-4v-6h-1z" fill="#BDABAC"/>
<path transform="translate(717,1256)" d="m0 0h1v30l-2-2-2-5h2l-1-2-2-1 3-3z" fill="#B1A1A1"/>
<path transform="translate(313,1156)" d="m0 0h2v4l-8 7-3 2 2-7z" fill="#B9ABAB"/>
<path transform="translate(477,1027)" d="m0 0 8 6 5 6-2 2-13-13z" fill="#A39494"/>
<path transform="translate(233,993)" d="m0 0h4l-1 6-2 3h-5l2-4v-1h-4l1-3z" fill="#A09292"/>
<path transform="translate(1461,954)" d="m0 0h2l1 15h-5v-7h2z" fill="#AD9E9E"/>
<path transform="translate(290,919)" d="m0 0h15l2 3h-18z" fill="#A89999"/>
<path transform="translate(1523,851)" d="m0 0 22 1v2h-16l-15-1v-1z" fill="#2652E5"/>
<path transform="translate(1044,823)" d="m0 0h7v10l-5-3-2-4z" fill="#AF9F9F"/>
<path transform="translate(649,1250)" d="m0 0h2v6h-2l-1 3-4 2-3-2z" fill="#B1A3A3"/>
<path transform="translate(694,1208)" d="m0 0h21v1l-17 1-1 2h-9l1-3z" fill="#CBC0C0"/>
<path transform="translate(385,658)" d="m0 0h2l1 8h-3v-2l-8-1v-2z" fill="#B4A5A5"/>
<path transform="translate(691,1303)" d="m0 0 1 4-4 3-5 1-1-1v-6l1 2 6-2z" fill="#AD9E9E"/>
<path transform="translate(456,1221)" d="m0 0 3 1-6 7h-3v-3l4-2zm-8 7m-1 1m-1 1m-1 1m-1 1m-2 1 2 1-3 2z" fill="#B6A8A8"/>
<path transform="translate(698,1209)" d="m0 0h16v3h-13l-5-1z" fill="#B3A5A5"/>
<path transform="translate(689,1227)" d="m0 0h3v4l-5 5h-2l-3 3 1-6z" fill="#AFA0A0"/>
<path transform="translate(518,1208)" d="m0 0 3 1-1 3-10 8h-2l2-4z" fill="#A79898"/>
<path transform="translate(1363,1089)" d="m0 0h6l1 1v11l-4-5-3-5z" fill="#2B55E3"/>
<path transform="translate(419,948)" d="m0 0h6l-1 13h-3z" fill="#B6A8A9"/>
<path transform="translate(243,734)" d="m0 0 1 2h2l-1 5-4 4-2-1 1-2-2-1 2-5z" fill="#BEB1B1"/>
<path transform="translate(665,721)" d="m0 0h4l-2 5-3 1-2 4-4-1 2-4z" fill="#AEA0A0"/>
<path transform="translate(342,720)" d="m0 0h4l-1 4-7 7h-2l2-5 3-5z" fill="#B0A1A1"/>
<path transform="translate(443,1332)" d="m0 0 10 1 2 2-6 3-4-1-3-2z" fill="#BCAFAF"/>
<path transform="translate(504,1014)" d="m0 0h2l1 4 3-1 2 4-2 2-5-2-4-5z" fill="#2652E5"/>
<path transform="translate(1489,987)" d="m0 0 5 1 1 7-5 2-1-1z" fill="#AA9C9C"/>
<path transform="translate(481,661)" d="m0 0 6 5-1 6-7-6z" fill="#CDBFC0"/>
<path transform="translate(692,1095)" d="m0 0 2 1-1 5h-2l-1 3-2-1-1 2h-3v-3h2l1-3z" fill="#2652E5"/>
<path transform="translate(314,1063)" d="m0 0h1v6l-1 2-1 12h-1l-1-12-2-4z" fill="#B3A4A4"/>
<path transform="translate(334,772)" d="m0 0 1 3-13 13-2-1 7-8z" fill="#B9ABAB"/>
<path transform="translate(351,712)" d="m0 0 4 3-8 7-1-2-3-1z" fill="#C5B5B6"/>
<path transform="translate(449,1202)" d="m0 0h5l-11 11h-2l1-5z" fill="#AA9A9B"/>
<path transform="translate(125,998)" d="m0 0 4 1 5 5v4l-4-1-3-3z" fill="#B4A6A6"/>
<path transform="translate(120,975)" d="m0 0 3 1v13h-3l-1-2z" fill="#B3A4A4"/>
<path transform="translate(1573,1105)" d="m0 0 11 1v4l-9-1z" fill="#5875DE"/>
<path transform="translate(190,1045)" d="m0 0 5 4 3 4h-2l1 3-4-2-5-6z" fill="#C2B2B3"/>
<path transform="translate(315,909)" d="m0 0 6 1 2 4h-10l-2-2z" fill="#B9ABAB"/>
<path transform="translate(365,789)" d="m0 0 2 4-7 6v-2l-3-1z" fill="#B5A7A7"/>
<path transform="translate(667,1229)" d="m0 0 1 2-1 2h2l1 10h-3l-1 3v-16z" fill="#B2A2A2"/>
<path transform="translate(1072,1194)" d="m0 0 3 3-1 6-5-1 1-7z" fill="#B8ABAC"/>
<path transform="translate(532,950)" d="m0 0 5 3 10 10-3 1-12-12z" fill="#A29597"/>
<path transform="translate(575,1210)" d="m0 0h2l-2 4-7 9h-2l1-5z" fill="#A99B9B"/>
<path transform="translate(587,1117)" d="m0 0 10 1 16 1v1h-26z" fill="#C8B9BA"/>
<path transform="translate(432,1065)" d="m0 0 2 2-7 6-2 3-4-4 3-2 6-3z" fill="#A29494"/>
<path transform="translate(399,1298)" d="m0 0 4 1 5 6h-2l-1 3-6-7z" fill="#B8AAAA"/>
<path transform="translate(144,1029)" d="m0 0 3 1 3 9-4 1-2-3z" fill="#B3A4A4"/>
<path transform="translate(287 1e3)" d="m0 0h14l4 2-18 1z" fill="#AE9E9F"/>
<path transform="translate(199,808)" d="m0 0 3 2v2h-2l-1 3-5 2v-4z" fill="#B7A8A8"/>
<path transform="translate(671,692)" d="m0 0 1 2-7 8-4 4-3-1z" fill="#A59696"/>
<path transform="translate(217,822)" d="m0 0 1 3-3 4-6-1v-3z" fill="#A89B9B"/>
<path transform="translate(384,762)" d="m0 0h3v9h-2l-1 6h-1v-12z" fill="#D0C4C5"/>
<path transform="translate(388,1217)" d="m0 0h12l1 3h-11l-3-2z" fill="#A19393"/>
<path transform="translate(1426,935)" d="m0 0 5 1v4h-2l-4 4v-8z" fill="#A49595"/>
<path transform="translate(1254,852)" d="m0 0 12 1 7 2v1l-17-1-2-1z" fill="#2B55E4"/>
<path transform="translate(512,1086)" d="m0 0h13l6 2v2l-7-1-12-2z" fill="#2652E5"/>
<path transform="translate(587,1081)" d="m0 0 5 2 17 1v1l-22 1z" fill="#5D78DB"/>
<path transform="translate(1591,1074)" d="m0 0 2 1 1 7 8 2v1h-11l-1-2z" fill="#4669E6"/>
<path transform="translate(420,1021)" d="m0 0h3l5 7-3 1-5-2z" fill="#A39494"/>
<path transform="translate(197,956)" d="m0 0 4 1-2 4-2 2h-5l3-5z" fill="#B6A5A6"/>
<path transform="translate(646,939)" d="m0 0h5l2 4v14h-1v-13h-2v-2h-5z" fill="#B3A4A8"/>
<path transform="translate(245,1273)" d="m0 0h1l1 11-3 1-2 3 1-10z" fill="#AF9FA0"/>
<path transform="translate(298,1136)" d="m0 0 1 4 3 1-1 4-1 2-3-1-1-2v-6z" fill="#AD9F9F"/>
<path transform="translate(128,1029)" d="m0 0 4 5v2h2l1 4-3 1-4-4z" fill="#B5A6A6"/>
<path transform="translate(1520,1010)" d="m0 0 3 1v13l-1-3h-2z" fill="#D4CCCC"/>
<path transform="translate(355,841)" d="m0 0 4 1-6 7h-3l2-5z" fill="#B0A1A2"/>
<path transform="translate(563,1193)" d="m0 0h17v1l-18 2-1-2z" fill="#9F9191"/>
<path transform="translate(1072,1183)" d="m0 0h1v8l2-1v7l-5-2 1-11z" fill="#FBFAFA"/>
<path transform="translate(342,1131)" d="m0 0 6 2 2 5h-6l-3-6z" fill="#C1B1B2"/>
<path transform="translate(201,1122)" d="m0 0 2 1-1 4 3 1-1 3-7-6-1-2z" fill="#BFAEAF"/>
<path transform="translate(176,789)" d="m0 0 2 1-3 7-4 1-3 2 2-4z" fill="#BBADAD"/>
<path transform="translate(1423,1017)" d="m0 0h3v2l-8 7-4 2 2-4z" fill="#A39AA8"/>
<path transform="translate(299,813)" d="m0 0 3 1-2 4-3 3-6-1v-1h5l2-5z" fill="#AE9FA0"/>
<path transform="translate(363,1200)" d="m0 0h10l1 3h-11z" fill="#A29494"/>
<path transform="translate(1493,1088)" d="m0 0h12l3 2-6 1h-9l-2-2z" fill="#2652E5"/>
<path transform="translate(424,1085)" d="m0 0h10l4 2-10 2-5-2z" fill="#2652E5"/>
<path transform="translate(630,992)" d="m0 0h7l-1 4-5 2-1-5z" fill="#AD9E9E"/>
<path transform="translate(141,900)" d="m0 0v3l-4 4-4-1h-2v-2l5-2z" fill="#B2A3A3"/>
<path transform="translate(348,847)" d="m0 0 1 2h2v2l-7 4-1-4z" fill="#B8ABAB"/>
<path transform="translate(563,746)" d="m0 0 1 3 3 1-5 5-3-1 1-4z" fill="#BFB0B1"/>
<path transform="translate(378,708)" d="m0 0 5 1v3h-2v2l-5 1 1-5z" fill="#A39595"/>
<path transform="translate(434,655)" d="m0 0 6 5-1 2-5-1-3-3 3-1z" fill="#B1A2A2"/>
<path transform="translate(668,1224)" d="m0 0 3 1h-2l1 5v11h-1v-8h-2l-1-5z" fill="#C4B6B6"/>
<path transform="translate(139,1122)" d="m0 0h1l1 9h-3l-1 2-1-10 2 2z" fill="#C8BABA"/>
<path transform="translate(227,959)" d="m0 0 2 1-4 6h-2v2l-5 1 6-7z" fill="#C3B4B5"/>
<path transform="translate(634,952)" d="m0 0h1v15h-2l-1-13z" fill="#AB9FA3"/>
<path transform="translate(293,902)" d="m0 0h9v2l-2 1h-9l-1-2z" fill="#AB9C9C"/>
<path transform="translate(1567,852)" d="m0 0 14 1-1 2h-10l-3-1z" fill="#2954E4"/>
<path transform="translate(551,740)" d="m0 0 3 2v8l-4-2z" fill="#CBBDBE"/>
<path transform="translate(541,1260)" d="m0 0 2 1-2 4-5 5h-3l6-7z" fill="#A39696"/>
<path transform="translate(266,1155)" d="m0 0h2l-2 4-4 3-3-3 5-3z" fill="#A99A9A"/>
<path transform="translate(789,1095)" d="m0 0 5 2 1 4h-2v3l-3-3z" fill="#2854E5"/>
<path transform="translate(542,1079)" d="m0 0h7l1 3-8 1-1 2v-5z" fill="#A39595"/>
<path transform="translate(443,1042)" d="m0 0 7 6-3 1-1 2-4-6z" fill="#BAABAB"/>
<path transform="translate(469,1023)" d="m0 0 14 2v1h-6v2l-6-1-2-1z" fill="#617AD8"/>
<path transform="translate(406,969)" d="m0 0 2 1v10l-3-1-1-5z" fill="#2652E5"/>
<path transform="translate(261,804)" d="m0 0 1 3-6 5-2-2 2-1v-3z" fill="#B9A9A9"/>
<path transform="translate(562,797)" d="m0 0 4 1 2 3v3l-4-1-2-2z" fill="#A49595"/>
<path transform="translate(1028,786)" d="m0 0h6l1 3-2 2h-5l-1-3z" fill="#B8ACAC"/>
<path transform="translate(417,1232)" d="m0 0 5 1-2 3-9 1 1-2h3v-2z" fill="#C7B9B9"/>
<path transform="translate(202,1125)" d="m0 0 4 2 3 3-1 4-4-2v-4l-2-1z" fill="#B1A1A2"/>
<path transform="translate(653,1123)" d="m0 0 7 2-4 3-4 2-1-5z" fill="#B2A3A3"/>
<path transform="translate(594,1096)" d="m0 0 6 1-3 2-9 1v-3z" fill="#AFA1A1"/>
<path transform="translate(774,1041)" d="m0 0h2l2 9-1 5h-1l-2-10z" fill="#2F58E4"/>
<path transform="translate(438,1037)" d="m0 0 5 4v4l-4-2-3-4z" fill="#AB9C9C"/>
<path transform="translate(421,1039)" d="m0 0 7 4 1 6-7-6z" fill="#A59696"/>
<path transform="translate(446,971)" d="m0 0 5 3 2 3-6-1-5-4z" fill="#B5A7A7"/>
<path transform="translate(175,1198)" d="m0 0h4l-1 8-4 3 1-3z" fill="#BBAEAE"/>
<path transform="translate(227,1168)" d="m0 0 2 4-6 5-1-4z" fill="#C8BBBB"/>
<path transform="translate(148,1103)" d="m0 0 5 5-3 3-4-5z" fill="#C4B4B5"/>
<path transform="translate(1095,1059)" d="m0 0h2v13l-1-2-2-1v-9z" fill="#2652E5"/>
<path transform="translate(834,1055)" d="m0 0 2 1 1 9-3-1-1-2v-6z" fill="#2F58E2"/>
<path transform="translate(459,1009)" d="m0 0 7 6 2-2-1 6-8-6z" fill="#667DD6"/>
<path transform="translate(282,985)" d="m0 0h11l1 2-11 1z" fill="#9F9191"/>
<path transform="translate(633,967)" d="m0 0 5 1-2 1v2l-5 1-4-3z" fill="#5B77DC"/>
<path transform="translate(553,1198)" d="m0 0 2 1-2 5h-2v8h-1v-11z" fill="#AC9D9D"/>
<path transform="translate(346,1175)" d="m0 0 4 1-1 1 6 1v1h-11l-1-3z" fill="#B7AAAB"/>
<path transform="translate(609,1159)" d="m0 0h6v3h-9l-1-2z" fill="#A49696"/>
<path transform="translate(356,1080)" d="m0 0 2 2v4h3v5l-2 1-3-7z" fill="#2B56E4"/>
<path transform="translate(134,1037)" d="m0 0 5 4 1 4-6-2v-4z" fill="#C0B2B2"/>
<path transform="translate(1096,936)" d="m0 0h1v11l-3-2v-8z" fill="#2652E5"/>
<path transform="translate(1041,910)" d="m0 0h7l-3 1-1 4-3 1-1-5z" fill="#4468E6"/>
<path transform="translate(357,873)" d="m0 0h2l-1 7h-3l1-5z" fill="#D8CFCF"/>
<path transform="translate(644,861)" d="m0 0h7l-1 3h-5z" fill="#A59797"/>
<path transform="translate(349,1129)" d="m0 0h10v1l-12 1z" fill="#DDD4D4"/>
<path transform="translate(1586,1074)" d="m0 0h2l-1 5h-2z" fill="#7F8DD4"/>
<path transform="translate(1610,1085)" d="m0 0h2v2l-5 3 2-4z" fill="#7D88C7"/>
<path transform="translate(611,936)" d="m0 0 3 3-1 2-2-2z" fill="#A39595"/>
<path transform="translate(379,1129)" d="m0 0 3 1v2l-3-1z" fill="#BDB3B3"/>
<path transform="translate(1582,1080)" d="m0 0 1 2-1 2-2-1z" fill="#687ED5"/>
<path transform="translate(1525,1049)" d="m0 0 2 3h-3z" fill="#DDD4D4"/>
<path transform="translate(358,891)" d="m0 0 1 3h-2z" fill="#BDABAC"/>
<path transform="translate(1592,1103)" d="m0 0 2 1-2 1z" fill="#7482C8"/>
<path transform="translate(321,1134)" d="m0 0 2 1z" fill="#FDFDFD"/>
<path transform="translate(1512,919)" d="m0 0 2 1z" fill="#FDFDFD"/>
<path transform="translate(1514,918)" d="m0 0 2 1z" fill="#FDFDFD"/>
<path transform="translate(1528,910)" d="m0 0 2 1z" fill="#BDABAC"/>
<path transform="translate(1594,1102)" d="m0 0" fill="#BDABAC"/>
<path transform="translate(1606,1090)" d="m0 0" fill="#FDFDFD"/>
<path transform="translate(1516,917)" d="m0 0" fill="#FDFDFD"/>
<path transform="translate(1527,911)" d="m0 0" fill="#BDABAC"/>
<path transform="translate(149,909)" d="m0 0" fill="#FDFDFD"/>
</svg>
